<?xml version="1.0" standalone="no"?>
<!DOCTYPE svg PUBLIC "-//W3C//DTD SVG 20010904//EN"
 "http://www.w3.org/TR/2001/REC-SVG-20010904/DTD/svg10.dtd">
<svg version="1.0" xmlns="http://www.w3.org/2000/svg"
 width="850.000000pt" height="881.000000pt" viewBox="0 0 850.000000 881.000000"
 preserveAspectRatio="xMidYMid meet">

<g transform="translate(0.000000,881.000000) scale(0.100000,-0.100000)"
fill="#000000" stroke="none">
<path d="M2776 8752 c-3 -31 -20 -136 -36 -232 -55 -315 -70 -479 -86 -921
l-6 -176 -42 14 c-179 63 -372 -167 -285 -340 12 -23 26 -45 32 -48 20 -13 -4
-28 -36 -22 -45 7 -141 -19 -229 -62 -113 -56 -117 -62 -117 -164 0 -119 4
-131 43 -131 36 0 94 25 178 76 68 42 87 40 31 -2 -21 -15 -85 -74 -143 -130
-70 -68 -122 -109 -155 -123 -91 -40 -174 -142 -175 -215 0 -19 -29 -72 -89
-161 -130 -195 -241 -420 -241 -488 0 -15 12 -64 27 -108 l26 -81 37 105 c46
129 80 204 154 332 49 85 152 235 161 235 1 0 29 -16 61 -35 32 -19 66 -35 76
-35 10 0 18 -2 18 -5 0 -3 -31 -61 -69 -129 -137 -244 -361 -709 -361 -749 0
-24 77 -171 103 -195 l24 -22 38 122 c20 68 53 170 72 228 41 122 194 513 199
507 2 -2 -17 -61 -42 -132 -89 -255 -154 -551 -175 -805 -11 -132 -13 -140
-33 -140 -12 0 -51 -13 -88 -29 -38 -16 -68 -27 -68 -25 0 3 9 22 20 43 26 53
44 126 36 156 -8 32 -72 65 -125 65 -80 0 -180 -71 -239 -171 -12 -19 -30 -44
-42 -54 -20 -18 -20 -18 -20 30 0 96 -62 159 -134 135 -85 -28 -126 -76 -184
-220 -11 -25 -11 -25 -11 7 -1 19 -12 44 -27 62 -32 39 -77 41 -150 7 -57 -27
-87 -61 -134 -156 -18 -36 -50 -90 -70 -120 -76 -112 -156 -250 -265 -460 -62
-118 -140 -262 -174 -319 -34 -56 -61 -109 -59 -117 3 -15 122 192 285 496 61
113 141 255 178 315 38 61 90 150 116 198 60 111 64 115 124 143 57 27 111 30
140 8 18 -14 20 -27 20 -162 0 -175 -31 -362 -65 -397 -19 -18 -22 -19 -47 -5
-41 23 -61 91 -73 243 -5 73 -17 152 -25 177 -13 41 -14 42 -10 10 3 -19 9
-91 14 -160 6 -69 15 -149 21 -178 12 -55 47 -107 80 -117 23 -7 56 9 69 33
15 28 61 315 61 380 0 99 54 229 117 281 69 57 141 53 175 -9 24 -42 19 -123
-12 -240 -34 -125 -121 -314 -156 -337 -31 -20 -70 -5 -84 33 -17 44 -11 154
15 277 23 107 33 219 19 205 -3 -4 -9 -39 -14 -80 -4 -40 -18 -120 -30 -178
-37 -177 -15 -271 63 -278 30 -3 39 2 62 31 35 43 130 277 147 359 7 37 20 68
30 76 10 7 32 34 50 60 45 65 117 141 151 159 37 19 125 20 163 2 27 -14 29
-19 29 -69 -1 -41 -10 -78 -39 -145 -94 -220 -150 -299 -205 -293 -65 8 -71
115 -18 297 20 69 35 127 32 129 -5 5 -4 8 -40 -113 -15 -49 -32 -114 -38
-142 -9 -42 -16 -55 -37 -62 l-25 -9 26 -1 c23 -1 28 -7 34 -37 7 -42 45 -84
74 -84 39 0 88 58 141 166 l51 106 67 30 c87 40 189 50 238 23 39 -21 59 -70
50 -120 -13 -68 -211 -295 -258 -295 -40 0 -68 39 -68 94 0 52 13 83 74 171
60 86 64 93 43 76 -22 -18 -99 -128 -115 -164 -7 -15 -12 -48 -12 -73 0 -36
-6 -51 -32 -80 -42 -46 -169 -341 -176 -407 -4 -39 -2 -46 11 -41 8 3 18 1 21
-5 4 -6 25 -15 46 -21 29 -8 40 -16 40 -30 0 -29 39 -126 55 -140 20 -17 19
-7 -6 43 -43 83 -35 215 17 277 45 52 71 38 119 -63 14 -31 45 -80 67 -108 31
-40 38 -56 33 -76 -8 -35 -43 -84 -105 -148 -59 -62 -72 -65 -180 -39 -53 13
-133 16 -432 18 -202 0 -360 -2 -350 -6 9 -4 33 -7 52 -7 19 -1 45 -4 57 -7
22 -6 21 -8 -17 -53 -80 -96 -266 -435 -364 -665 -63 -146 -97 -269 -151 -536
-25 -123 -57 -258 -71 -299 -33 -97 -88 -190 -165 -274 -34 -37 -59 -70 -56
-73 2 -3 30 23 62 58 32 35 55 56 52 48 -3 -8 -31 -71 -61 -140 -52 -116 -56
-130 -56 -203 l0 -77 38 27 c21 16 62 39 90 52 29 14 52 28 52 33 0 5 -9 4
-19 -2 -31 -16 -88 -13 -95 6 -12 32 -5 67 27 132 34 70 133 184 188 216 l32
19 -6 -359 c-7 -383 -31 -846 -46 -904 -5 -19 -19 -69 -30 -110 -20 -73 -57
-281 -68 -388 l-5 -52 155 0 c115 0 157 3 160 13 4 9 6 9 6 -1 1 -10 66 -12
306 -12 l305 1 9 37 c62 234 152 665 171 816 12 99 15 106 36 106 8 0 27 12
41 26 l26 26 69 -27 c163 -64 249 -71 319 -27 25 16 60 49 79 73 45 58 54 68
47 47 -14 -41 -41 -1078 -28 -1078 5 0 12 147 16 328 4 180 11 379 15 442 6
108 7 110 10 40 1 -41 1 -85 0 -97 -3 -47 8 -21 19 42 14 76 50 153 103 217
45 54 89 73 150 63 l41 -7 -6 43 c-12 85 13 0 49 -167 19 -89 43 -186 53 -215
l18 -54 -1 125 c-1 136 9 180 51 230 50 60 107 33 180 -84 108 -173 123 -219
154 -466 37 -303 63 -440 84 -440 9 0 14 45 19 175 10 259 21 307 87 398 30
41 72 89 94 107 l40 34 -30 -33 c-28 -32 -28 -33 -8 -28 13 3 26 1 29 -4 3 -5
10 -7 15 -3 5 3 7 10 4 15 -4 5 6 4 21 -3 22 -10 28 -10 32 0 3 10 8 8 19 -5
13 -17 14 -16 7 7 -8 32 -33 60 -53 61 -11 0 -12 2 -3 6 24 9 61 -39 93 -121
29 -74 31 -88 26 -161 -3 -44 -22 -156 -41 -248 -41 -191 -41 -197 -22 -197 8
0 48 63 92 147 137 263 156 297 191 358 37 62 143 179 178 196 20 10 20 10 1
-5 -20 -16 -20 -16 0 -31 21 -16 34 -19 34 -7 0 4 12 13 28 19 15 7 54 24 87
38 116 50 178 68 198 56 17 -11 17 -10 2 18 -11 23 -24 32 -53 36 -56 10 -63
16 -12 11 81 -8 128 -94 115 -211 -6 -60 -68 -252 -100 -314 -27 -54 -9 -47
29 11 60 92 91 133 164 225 76 95 224 243 244 243 6 0 3 -6 -8 -14 -16 -13
-17 -17 -5 -28 10 -9 12 -9 7 0 -4 7 -1 12 8 12 9 0 16 -4 16 -10 0 -5 7 -10
15 -10 20 0 155 -136 155 -155 0 -8 4 -15 8 -15 5 0 17 -17 28 -38 10 -20 22
-39 26 -42 18 -14 84 -303 94 -413 l7 -77 182 0 c165 0 183 2 188 17 3 10 30
76 59 148 30 72 62 159 73 195 10 36 24 72 31 80 7 8 26 43 42 78 l30 63 12
-36 c7 -20 22 -45 33 -56 74 -70 365 -165 563 -184 l70 -7 -4 -59 -4 -58 49
-31 c45 -28 52 -37 67 -91 l16 -59 223 0 222 0 0 176 c1 145 -2 172 -12 158
-22 -31 -14 -5 14 44 74 128 196 288 323 422 l71 75 -5 -49 c-4 -28 -10 -53
-16 -56 -12 -7 -124 -241 -145 -305 -32 -92 -22 -194 36 -396 l19 -66 39 -1
38 -2 6 273 c4 177 13 329 26 437 11 91 26 212 32 270 l12 105 27 -85 c15 -47
25 -88 23 -92 -2 -4 -15 -3 -28 2 -34 13 -33 -6 4 -45 40 -42 61 -111 61 -204
0 -91 -8 -103 -71 -105 -33 0 -37 -3 -24 -11 91 -54 109 -71 138 -132 53 -115
21 -203 -76 -203 l-42 0 56 -24 c31 -12 72 -32 90 -42 32 -18 69 -75 82 -123
5 -20 13 -21 112 -21 l108 0 -70 73 c-108 114 -158 231 -252 597 -91 355 -145
508 -272 782 -99 211 -280 490 -356 547 l-28 20 60 1 c33 1 78 5 100 10 26 6
-24 7 -146 4 -147 -4 -199 -2 -255 10 -103 24 -336 106 -360 128 -16 14 -23
36 -28 82 -3 35 -24 116 -46 180 -44 129 -48 157 -24 181 33 33 110 0 177 -75
45 -50 66 -97 68 -150 0 -14 3 -19 6 -12 2 7 22 12 44 12 33 0 46 6 74 38 39
42 39 36 25 222 -7 104 -13 138 -39 200 -36 87 -34 80 -18 80 14 0 75 62 99
100 25 41 56 133 59 175 3 31 9 43 29 53 l25 12 -27 -5 c-25 -5 -28 -2 -29 22
-1 16 -5 -10 -9 -57 -14 -169 -124 -322 -198 -274 l-25 16 7 172 c4 94 11 188
17 208 12 46 53 81 147 126 85 40 151 46 196 17 27 -18 28 -19 10 -34 -33 -28
-52 -66 -63 -127 -6 -33 -24 -101 -41 -153 -16 -52 -32 -120 -36 -151 -6 -50
-4 -60 15 -79 29 -29 69 -26 122 7 51 33 93 103 130 219 17 54 28 74 47 83 32
14 23 24 -11 11 -17 -7 -29 -20 -32 -38 -12 -52 -46 -139 -76 -191 -30 -54
-85 -92 -132 -92 -54 0 -59 42 -22 181 14 52 32 128 41 169 24 112 45 148 91
155 21 3 61 12 90 19 50 14 52 14 76 -13 14 -14 34 -45 46 -69 20 -38 21 -48
10 -110 -6 -37 -19 -101 -30 -143 -24 -94 -25 -181 -3 -203 8 -9 28 -16 43
-16 34 0 107 51 116 80 5 15 12 19 23 15 10 -4 31 -8 47 -11 28 -4 27 -3 -8
13 -28 12 -36 20 -31 32 16 37 73 207 74 219 0 25 -18 2 -25 -31 -8 -37 -49
-146 -76 -198 -28 -56 -85 -101 -122 -97 -31 3 -32 4 -35 57 -3 48 10 133 49
327 19 95 96 136 165 87 30 -22 46 -54 149 -308 29 -71 75 -182 103 -245 60
-140 101 -259 142 -410 25 -89 53 -155 125 -295 171 -332 279 -519 459 -795
326 -499 430 -717 430 -895 0 -82 -37 -238 -90 -386 -13 -37 -24 -69 -24 -73
0 -3 86 -6 190 -6 l190 0 0 243 0 243 -26 35 c-14 19 -46 66 -71 104 -96 148
-309 420 -405 518 -154 157 -367 490 -615 962 -105 200 -102 195 -147 355 -46
165 -73 240 -136 385 -29 66 -69 163 -90 215 -137 345 -165 389 -244 390 -33
0 -45 -6 -77 -40 -36 -38 -38 -39 -45 -17 -3 12 -17 36 -30 54 l-24 31 45 94
c87 185 136 427 136 681 0 95 6 209 12 254 l11 81 38 -19 c20 -10 40 -19 43
-19 3 0 5 20 5 44 0 48 -23 121 -45 146 -13 14 -12 21 3 53 14 30 22 37 42 35
21 -3 26 -11 37 -63 34 -168 45 -291 40 -470 -6 -241 -35 -352 -124 -480 l-35
-50 32 35 c47 51 105 182 125 278 9 46 23 98 30 115 35 84 54 455 35 672 -6
76 -17 174 -24 217 -7 43 -12 78 -11 78 1 0 49 -18 108 -40 176 -67 262 -84
422 -84 122 -1 146 2 185 20 124 57 161 169 100 299 -51 108 -224 244 -330
260 -19 3 -28 2 -20 -1 8 -4 26 -15 39 -25 13 -10 27 -16 32 -13 8 5 89 -32
89 -41 0 -6 -50 15 -68 28 -25 19 -24 -2 2 -36 62 -81 75 -206 30 -295 -35
-70 -103 -129 -158 -137 -38 -6 -56 -1 -148 43 -92 43 -229 126 -295 179 -17
13 -32 53 -58 148 -20 72 -47 165 -60 208 -14 43 -25 90 -25 105 -1 15 -11 83
-24 152 l-24 125 29 31 c67 70 90 222 49 313 -11 24 -23 42 -25 39 -3 -3 2
-19 11 -37 9 -18 19 -61 21 -95 16 -201 -186 -361 -363 -288 -78 33 -85 41
-73 94 13 58 -2 141 -32 178 l-20 25 18 -35 c28 -54 25 -191 -5 -252 -44 -89
-126 -147 -219 -155 -184 -16 -359 171 -324 346 41 207 276 295 452 170 27
-20 37 -24 25 -11 -18 21 -18 22 8 66 49 84 130 130 231 130 83 1 130 -14 193
-60 l47 -35 -42 39 c-25 23 -64 46 -95 56 -52 16 -54 18 -80 82 l-27 65 35 47
c54 69 175 257 219 337 21 39 39 71 40 73 1 1 20 -8 41 -20 33 -19 38 -27 36
-51 -4 -35 24 -69 52 -65 28 4 35 62 10 89 -11 12 -15 28 -11 47 3 17 -2 44
-13 70 l-19 42 29 0 c39 0 59 9 71 31 12 24 -9 75 -45 108 -14 14 -26 30 -26
37 0 7 18 41 39 76 22 35 42 74 46 88 l6 25 -138 3 c-139 3 -256 9 -783 41
l-285 17 -95 66 c-52 35 -125 81 -163 102 -146 80 -455 190 -648 230 -200 41
-577 57 -759 32 l-115 -16 -15 22 c-8 13 -29 38 -46 57 -43 48 -63 38 -105
-53 l-34 -75 -66 -23 -66 -24 -64 59 c-168 156 -526 438 -739 581 -46 31 -103
74 -126 96 l-43 40 -5 -58z m134 -69 c27 -11 249 -174 442 -324 l117 -91 -88
-92 c-103 -107 -150 -160 -214 -239 -50 -63 -51 -62 -66 13 -7 36 -9 39 -10
15 -1 -17 3 -45 9 -64 9 -32 6 -39 -33 -91 -36 -49 -72 -80 -237 -203 -8 -7
-6 -2 4 11 l19 22 -41 0 c-54 0 -54 13 -1 29 l42 13 -54 54 c-29 29 -51 55
-48 57 17 16 73 37 99 37 35 0 37 6 13 33 -17 19 -17 19 6 12 l24 -7 -7 70
c-4 38 -4 104 0 146 l7 76 68 -61 c76 -67 78 -66 60 29 -12 60 1 41 34 -51 15
-42 30 -76 32 -74 4 5 -48 153 -154 435 -42 111 -78 201 -80 198 -4 -4 51
-166 111 -324 20 -52 36 -117 40 -162 l8 -75 -24 20 c-13 11 -40 35 -60 54
-21 19 -41 31 -45 27 -4 -4 -8 -71 -8 -150 0 -142 0 -142 -22 -138 -25 5 -30
-7 -11 -26 9 -9 7 -13 -8 -18 -42 -13 -95 -38 -101 -47 -3 -5 16 -30 42 -57
l47 -48 -41 -23 c-23 -12 -41 -26 -41 -30 0 -4 19 -9 43 -11 l42 -3 -74 -77
c-41 -43 -78 -78 -84 -78 -5 0 -6 45 -3 108 4 59 11 193 17 297 12 230 30 383
69 615 16 96 32 201 36 234 l6 59 46 -45 c26 -24 58 -49 72 -55z m1115 -495
c44 -52 155 -268 206 -403 21 -55 39 -95 39 -88 0 22 -62 188 -97 257 -19 37
-32 70 -30 72 3 3 49 9 103 14 l99 8 -108 -1 -107 -2 -15 29 c-8 15 -15 32
-15 36 0 15 180 30 356 30 179 0 360 -17 503 -46 277 -57 613 -194 807 -329
l78 -55 -81 0 c-88 0 -289 -24 -338 -40 -33 -11 -30 -11 140 12 123 16 455 11
820 -11 182 -12 378 -21 436 -21 154 0 231 -9 227 -28 -4 -20 -156 -67 -286
-87 -196 -30 -489 -108 -676 -179 -182 -69 -291 -128 -282 -151 3 -8 -2 -19
-10 -26 -8 -7 -11 -15 -6 -18 28 -20 150 -241 201 -366 37 -90 46 -104 36 -60
-10 42 -146 319 -189 383 -29 43 -33 54 -20 59 8 3 13 12 9 20 -3 9 4 23 16
34 28 24 231 109 350 147 85 26 101 28 169 21 41 -4 82 -8 90 -9 8 -1 -3 -8
-25 -16 -46 -17 -75 -41 -35 -29 14 4 45 17 70 28 l45 21 -30 8 c-17 4 -52 10
-78 13 -54 7 -55 9 -12 19 22 5 26 4 15 -4 -25 -16 32 -12 71 5 l34 16 -45 -5
c-53 -6 159 49 222 57 l43 6 -35 -14 c-19 -7 -51 -14 -70 -15 -19 -1 -27 -4
-17 -7 9 -2 17 -9 17 -14 0 -5 10 -9 23 -9 18 0 19 2 7 11 -11 8 -8 9 15 3 48
-11 125 -11 125 0 1 6 7 -2 15 -19 9 -20 14 -24 14 -12 1 9 5 17 9 17 7 0 21
21 41 64 2 5 -6 7 -18 3 -11 -3 -21 -1 -21 3 0 5 14 11 31 15 17 4 61 17 99
29 l68 23 -39 -63 c-22 -34 -39 -66 -37 -71 1 -4 -4 -25 -11 -46 l-13 -39 -27
26 c-62 59 -78 4 -18 -61 17 -19 19 -27 9 -48 -16 -34 -15 -40 1 -26 11 8 18
7 29 -7 20 -23 29 -62 15 -62 -25 1 -56 37 -67 78 -8 32 -16 42 -31 42 -29 0
-33 -23 -11 -74 l20 -45 -64 -110 c-134 -232 -334 -492 -476 -619 l-38 -34
-57 19 c-79 27 -142 22 -221 -18 -69 -35 -110 -80 -143 -155 -17 -38 -21 -61
-17 -118 6 -85 29 -136 92 -199 113 -112 277 -130 397 -42 l33 25 25 -47 c76
-151 207 -525 265 -758 83 -334 110 -548 110 -860 0 -198 -4 -245 -23 -339
-28 -138 -74 -282 -117 -368 -30 -59 -38 -68 -62 -68 -15 -1 -49 -7 -77 -14
-27 -8 -52 -12 -54 -10 -2 2 6 38 17 81 35 129 45 244 39 423 -16 447 -185
973 -495 1540 -75 137 -240 410 -248 410 -7 0 8 -27 109 -200 l91 -154 -12
-142 c-12 -149 -46 -349 -88 -524 -26 -109 -134 -443 -141 -436 -2 2 5 39 16
82 49 195 92 537 90 718 l-2 101 -8 -120 c-29 -426 -90 -753 -194 -1040 -50
-139 -137 -322 -200 -420 -46 -73 -44 -70 -52 -62 -3 4 2 13 11 20 14 10 16
20 11 37 l-8 24 -13 -30 c-8 -16 -12 -21 -9 -11 2 10 11 43 19 75 9 31 24 84
36 116 11 33 20 71 19 85 0 16 -14 -12 -33 -67 -32 -90 -56 -134 -56 -102 0 8
-9 -3 -21 -24 -11 -21 -18 -44 -15 -52 8 -20 -31 -28 -50 -10 -8 9 -19 16 -24
16 -5 0 -10 12 -12 27 -2 19 -11 29 -33 36 -16 5 -37 11 -45 14 -8 4 -18 5
-22 5 -5 -1 -8 4 -8 11 -1 19 -30 -24 -30 -45 0 -9 -9 -32 -21 -50 -12 -18
-18 -24 -14 -13 55 155 102 326 140 500 15 71 36 135 59 180 37 72 90 224 82
233 -3 3 -8 -1 -10 -9 -2 -8 -12 -39 -22 -69 -24 -79 -96 -221 -155 -306 -69
-99 -85 -109 -43 -27 68 136 128 343 155 535 18 134 29 544 18 731 -31 576
-172 1146 -380 1537 -91 168 -228 370 -294 430 -15 14 10 -27 57 -90 110 -150
147 -208 229 -365 134 -258 234 -554 293 -875 23 -125 31 -176 68 -440 14
-105 19 -820 5 -854 -6 -16 -13 -10 -43 40 -60 98 -160 294 -198 384 -38 93
-88 260 -106 353 -20 99 -23 55 -6 -70 16 -115 40 -473 32 -480 -2 -2 -6 22
-10 54 -4 32 -10 72 -15 88 l-8 30 -6 -40 c-3 -22 -9 -88 -12 -147 l-7 -107
-46 6 c-27 3 -57 15 -70 27 -27 24 -108 129 -115 148 -2 7 -7 11 -10 8 -3 -3
5 -42 18 -85 23 -77 24 -79 4 -55 -67 80 -256 538 -227 549 6 2 5 7 -2 11 -35
22 -91 394 -109 733 -5 93 -13 172 -16 175 -8 7 -1 -154 16 -378 8 -116 38
-360 55 -455 l5 -30 -31 35 c-51 57 -157 221 -197 306 -33 69 -39 93 -49 199
l-11 120 -3 -80 -2 -80 -14 43 c-12 39 -11 57 12 179 14 74 23 140 21 146 -3
11 -47 -206 -47 -238 -2 -80 -60 189 -85 385 -22 176 -29 503 -16 715 16 267
16 269 58 284 19 7 33 15 30 17 -2 3 -17 0 -32 -6 -15 -6 -29 -9 -31 -7 -4 4
26 210 32 216 2 2 22 -9 45 -25 58 -40 150 -143 188 -211 18 -32 29 -47 25
-33 -19 73 -125 201 -222 269 -28 19 -32 28 -27 48 14 56 14 84 0 38 -59 -196
-79 -410 -80 -850 0 -410 6 -486 62 -735 58 -261 183 -539 295 -656 16 -17 30
-38 32 -47 1 -9 14 -25 28 -36 20 -16 27 -33 33 -78 16 -132 83 -356 152 -512
7 -16 -19 -9 -93 25 l-51 24 -62 -21 c-65 -22 -80 -36 -20 -19 18 6 43 10 54
10 17 0 15 -3 -10 -19 -33 -21 -79 -63 -110 -100 l-20 -24 43 22 c46 24 130
46 206 55 41 5 47 4 36 -8 -11 -14 -42 -116 -35 -116 2 0 17 13 33 29 35 35
75 47 111 35 39 -14 39 -51 -2 -110 -39 -57 -74 -73 -117 -57 -30 11 -30 11
-30 -26 0 -95 66 -250 126 -296 79 -60 181 -73 263 -33 25 12 39 24 33 26 -7
2 -27 -3 -46 -12 -81 -38 -170 -28 -233 27 -49 43 -73 98 -73 172 0 57 16 104
26 79 3 -7 15 -9 27 -6 20 5 21 4 7 -13 -14 -17 -14 -17 18 -1 26 13 32 14 32
3 0 -8 9 -22 19 -31 11 -10 25 -31 31 -47 14 -32 40 -38 61 -13 25 30 83 53
104 42 12 -7 20 -8 22 -1 6 16 62 2 68 -18 3 -10 -5 -46 -19 -81 -30 -73 -21
-95 17 -41 45 66 69 133 76 214 7 77 6 78 -15 73 -27 -7 -40 12 -24 32 10 11
16 12 26 3 15 -13 17 -8 14 36 -2 27 0 28 17 15 50 -38 83 -76 83 -95 0 -29
-46 -144 -66 -167 -10 -10 -15 -20 -13 -22 2 -2 43 39 92 90 48 52 87 89 87
83 0 -28 -54 -251 -77 -319 -44 -130 -118 -271 -170 -324 -33 -34 -38 -43 -18
-29 42 30 136 129 175 185 18 27 35 46 37 44 10 -9 -77 -339 -122 -466 -53
-150 -50 -145 -154 -214 -160 -107 -445 -248 -651 -324 -126 -46 -353 -102
-416 -102 -30 0 -70 6 -88 14 -43 18 -276 179 -396 274 -188 148 -412 398
-483 537 -55 109 -59 135 -67 475 -6 265 -12 352 -38 545 -40 296 -65 577 -57
629 7 48 75 256 84 256 3 0 7 -55 8 -123 1 -107 20 -276 38 -350 6 -21 0 -28
-39 -51 -44 -26 -69 -49 -46 -44 6 2 28 -43 49 -102 21 -58 45 -121 54 -140
l16 -35 -6 35 c-4 19 -11 38 -17 42 -7 5 -7 8 2 8 9 0 13 12 12 38 -4 83 -2
90 33 101 33 10 65 14 105 12 22 -1 23 -4 17 -48 -4 -27 -9 -57 -12 -67 -5
-18 -4 -18 22 2 30 24 83 29 116 12 13 -7 19 -21 19 -45 0 -27 -7 -39 -32 -58
-40 -30 -73 -38 -102 -27 -22 8 -22 7 -15 -53 14 -104 38 -180 78 -244 52 -81
98 -115 165 -121 45 -4 56 -1 84 23 18 15 29 31 26 36 -3 5 -18 -4 -34 -21
-84 -90 -244 44 -258 217 -4 48 -2 64 6 59 7 -4 22 0 34 8 30 21 38 20 38 -5
0 -25 60 -119 76 -119 21 0 64 41 64 61 0 28 11 23 49 -22 31 -37 33 -45 28
-89 -5 -37 -2 -50 9 -54 27 -10 56 99 57 216 l1 77 18 -29 c37 -62 30 -31 -30
122 -6 14 -16 29 -21 33 -6 3 -11 11 -11 17 0 7 13 -1 30 -17 16 -16 32 -26
35 -23 7 6 -111 118 -169 160 -56 41 -136 80 -229 113 -43 15 -79 31 -81 34
-2 3 3 44 11 89 17 97 92 324 165 497 104 247 299 613 328 615 3 0 2 -35 -2
-77 -4 -43 -12 -125 -18 -183 -13 -136 -13 -414 1 -538 14 -133 54 -330 88
-429 15 -46 26 -83 24 -83 -2 0 -16 8 -31 18 -15 10 -36 23 -47 28 -11 6 -20
16 -20 23 0 6 -31 46 -70 88 -38 42 -87 99 -109 127 -54 71 -37 30 26 -62 66
-97 160 -192 217 -219 39 -20 48 -31 91 -120 45 -92 111 -202 94 -158 -55 147
-120 372 -111 382 3 2 12 -27 22 -64 31 -119 156 -361 188 -363 5 0 5 5 2 10
-8 12 11 13 33 1 9 -5 59 -20 111 -35 l93 -25 -6 42 c-15 98 -36 358 -36 437
0 95 27 420 35 429 9 8 84 -82 85 -101 1 -43 94 -361 135 -460 6 -14 2 -18
-16 -18 -13 0 -31 -5 -39 -10 -11 -7 -4 -10 25 -10 43 0 39 5 113 -141 1 -4
-23 -10 -55 -13 -32 -4 -67 -12 -78 -17 -17 -8 -15 -8 7 -4 65 13 148 17 148
8 0 -5 7 -18 16 -29 8 -10 -3 15 -25 56 -58 108 -126 291 -175 470 -24 85 -43
156 -42 157 1 1 35 -29 76 -67 112 -104 106 -84 -7 28 -178 175 -271 324 -357
569 -194 558 -177 1154 50 1714 41 102 71 159 84 159 5 0 25 -19 45 -42z
m-585 19 c0 -2 -10 -12 -22 -23 l-23 -19 19 23 c18 21 26 27 26 19z m105 -15
c-3 -3 -11 0 -18 7 -9 10 -8 11 6 5 10 -3 15 -9 12 -12z m74 -54 c46 -42 49
-48 24 -48 -24 0 -205 -88 -276 -134 -40 -25 -53 -30 -45 -17 21 34 236 243
246 240 5 -2 28 -21 51 -41z m-259 -21 c0 -2 -10 -12 -22 -23 l-23 -19 19 23
c18 21 26 27 26 19z m345 -67 c10 -11 16 -20 13 -20 -3 0 -13 9 -23 20 -10 11
-16 20 -13 20 3 0 13 -9 23 -20z m141 -67 c-38 -102 -82 -262 -111 -409 -3
-11 -15 -25 -28 -31 -78 -36 -288 -227 -421 -383 -126 -149 -295 -382 -369
-511 -242 -421 -375 -793 -438 -1224 -29 -195 -11 -559 32 -684 6 -18 9 -34 6
-37 -5 -5 -68 170 -91 256 -26 98 -48 232 -56 350 l-8 115 3 -130 c1 -71 9
-163 16 -203 11 -63 11 -97 -4 -250 -19 -189 -22 -482 -7 -597 5 -38 7 -71 5
-73 -1 -2 -11 20 -20 49 -12 36 -20 47 -26 38 -7 -11 -12 -12 -28 -2 -13 8
-22 9 -26 3 -9 -14 -45 -12 -45 3 0 7 -4 5 -10 -4 -6 -10 -6 -28 -1 -45 14
-43 22 -112 11 -94 -8 15 -46 204 -53 270 -3 29 -4 26 -5 -13 -1 -27 -6 -46
-11 -43 -12 8 -23 -38 -16 -72 2 -15 -7 6 -20 47 -53 155 -85 444 -67 608 24
226 233 726 494 1189 97 170 114 203 101 189 -20 -21 -134 -216 -214 -365
-239 -449 -393 -863 -487 -1310 -10 -44 -10 -44 -11 -10 -2 69 -55 119 -125
120 l-39 0 6 108 c32 557 284 1243 681 1852 293 450 521 713 874 1004 77 63
89 76 77 76 -3 0 -52 -38 -109 -85 l-105 -84 -16 50 c-10 28 -15 52 -14 53 40
36 327 189 479 256 52 23 100 48 105 55 10 12 106 45 114 39 2 -2 -8 -33 -23
-71z m-576 -77 c0 -2 -8 -10 -17 -17 -16 -13 -17 -12 -4 4 13 16 21 21 21 13z
m205 -6 c-3 -5 -12 -10 -18 -10 -7 0 -6 4 3 10 19 12 23 12 15 0z m-301 -262
l16 -53 -33 -29 c-70 -62 -287 -280 -303 -303 -8 -14 -18 -22 -21 -19 -4 3 1
14 10 23 8 10 16 23 17 28 3 17 99 174 167 272 58 84 103 133 124 133 4 0 15
-24 23 -52z m539 -208 c-21 -157 -13 -536 16 -695 44 -247 143 -535 230 -670
l26 -40 -3 -260 c-3 -207 1 -306 18 -484 12 -123 19 -225 17 -227 -2 -2 -48
11 -103 28 -54 18 -106 32 -115 31 -19 -3 -87 111 -131 219 -33 83 -80 250
-98 351 -20 110 -23 69 -5 -70 17 -133 43 -257 69 -332 29 -81 10 -52 -33 50
-183 436 -206 995 -65 1609 12 55 -15 -7 -31 -70 -9 -36 -34 -92 -55 -125 -89
-140 -146 -244 -229 -417 -90 -186 -193 -436 -206 -496 -4 -18 -9 -31 -11 -29
-9 8 74 319 125 471 52 157 54 186 3 51 -86 -228 -189 -678 -193 -839 -1 -28
-4 -64 -8 -80 l-6 -29 -35 39 c-20 21 -40 39 -45 39 -35 0 -68 451 -45 617 25
189 103 452 176 602 19 39 28 62 19 51 -58 -72 -151 -335 -191 -538 -14 -73
-45 -186 -69 -252 -69 -195 -126 -456 -108 -502 3 -7 1 -13 -4 -13 -5 0 -15
15 -22 33 -51 127 -57 262 -17 397 106 360 288 730 520 1056 160 225 392 479
510 559 87 60 110 74 112 72 0 -1 -5 -49 -13 -107z m3062 80 c-3 -5 -13 -10
-21 -10 -8 0 -12 5 -9 10 3 6 13 10 21 10 8 0 12 -4 9 -10z m-3940 -54 c-10
-14 -21 -26 -25 -26 -5 0 -17 -3 -27 -7 -10 -3 0 10 22 29 45 41 54 42 30 4z
m3898 27 c-7 -2 -19 -2 -25 0 -7 3 -2 5 12 5 14 0 19 -2 13 -5z m289 -88 c43
-50 9 -103 -58 -91 -38 8 -104 65 -104 91 0 13 13 5 50 -29 39 -37 57 -47 78
-44 41 5 42 47 3 81 -16 13 -27 27 -24 31 7 7 31 -10 55 -39z m-4389 24 c21
-10 26 -22 37 -88 6 -42 14 -86 17 -99 5 -23 4 -23 -39 -17 -59 9 -121 -8
-185 -52 -56 -37 -58 -40 -44 -62 7 -11 18 -7 56 19 30 20 44 37 41 46 -13 34
124 47 191 19 69 -29 69 -28 -19 -143 -45 -59 -111 -152 -146 -207 -36 -55
-66 -102 -69 -104 -9 -11 -78 68 -99 114 -33 69 -31 128 6 201 32 64 33 86 1
34 l-19 -33 -20 39 c-30 60 -35 108 -18 167 19 64 71 127 128 156 48 23 141
29 181 10z m167 -14 c0 -3 -21 -47 -47 -98 -45 -88 -47 -91 -54 -62 -16 73
-11 101 26 134 31 27 75 42 75 26z m4187 -17 c36 -34 29 -55 -17 -48 -25 3
-32 16 -24 44 8 32 11 32 41 4z m-133 -122 c7 -37 68 -100 89 -93 20 7 10 67
-14 93 -12 13 -20 26 -17 29 3 3 17 -8 32 -25 31 -37 37 -104 10 -114 -38 -15
-123 73 -124 127 0 30 18 18 24 -17z m130 -145 c21 -23 18 -65 -5 -69 -19 -3
-40 39 -32 67 7 26 15 26 37 2z m-420 -454 c23 -57 29 -80 18 -73 -6 3 -29 2
-51 -3 -33 -7 -40 -6 -44 9 -3 13 48 98 60 100 2 0 9 -15 17 -33z m-4373 -103
c-10 -27 -21 -64 -24 -81 -6 -30 -4 -33 17 -33 46 0 49 8 -87 -222 -54 -92
-74 -118 -91 -118 -47 1 -76 46 -76 118 0 52 3 58 113 205 28 37 57 67 64 67
7 0 12 4 11 9 -3 9 82 114 88 108 2 -2 -5 -25 -15 -53z m4274 9 c-28 -20 -41
-16 -20 7 10 11 22 17 28 13 6 -4 3 -12 -8 -20z m-4437 -91 c-16 -9 -28 -20
-28 -24 0 -5 -6 -8 -12 -8 -7 1 -3 9 10 20 20 17 21 19 5 23 -10 3 -2 5 17 6
l35 0 -27 -17z m4280 -52 c-7 -11 -17 -20 -22 -20 -5 0 -1 9 9 20 10 11 20 20
22 20 2 0 -2 -9 -9 -20z m-4053 -69 c-15 -31 -28 -42 -20 -18 19 52 28 70 32
60 2 -6 -3 -25 -12 -42z m-319 -8 c-19 -38 -30 -122 -22 -167 4 -20 19 -47 34
-61 l27 -25 -51 0 c-41 0 -59 6 -92 30 -56 40 -71 73 -62 130 6 37 8 39 9 14
1 -19 7 -34 17 -38 14 -5 15 -4 4 9 -11 13 -10 14 4 9 10 -4 16 -1 17 7 0 8 4
5 9 -6 l9 -20 0 20 c1 17 3 17 11 5 8 -12 10 -10 10 8 0 13 4 20 10 17 6 -3
11 2 11 12 1 17 2 17 6 -1 4 -14 9 -9 24 24 10 23 16 47 12 53 -4 6 -1 7 7 2
10 -6 12 -4 6 11 -5 14 -4 16 4 8 9 -9 8 -19 -4 -41z m183 -253 l-30 -63 -58
6 c-32 2 -77 13 -100 23 l-43 19 56 1 c41 1 72 10 121 35 37 18 69 37 72 42 3
4 7 7 9 4 2 -2 -10 -32 -27 -67z m4651 -67 c0 -5 9 -52 20 -106 11 -55 20
-104 20 -110 0 -7 -18 35 -40 92 -30 79 -37 107 -29 118 12 14 29 18 29 6z
m-50 -33 c0 -5 -15 -10 -32 -9 -31 1 -32 1 -8 9 35 11 40 11 40 0z m-104 -21
c-15 -4 -36 -15 -46 -24 -16 -14 -19 -14 -34 9 -9 14 -16 27 -16 28 0 2 28 1
62 -1 53 -3 58 -5 34 -12z m-2610 -140 c-14 -123 -15 -126 -11 -40 3 52 5 117
5 145 0 35 3 47 11 39 7 -7 6 -50 -5 -144z m2631 -199 c102 -128 269 -290 384
-372 106 -76 306 -181 389 -203 l55 -15 -65 6 c-235 21 -547 164 -764 350
l-68 59 -53 143 c-30 78 -75 190 -100 247 -38 84 -45 108 -35 120 10 12 27 -8
97 -113 47 -70 119 -170 160 -222z m187 75 c24 -71 58 -181 74 -243 l30 -113
-48 41 c-44 37 -48 44 -43 73 6 40 -15 62 -53 54 -21 -4 -33 3 -63 35 -42 47
-51 64 -27 55 45 -17 26 62 -34 141 l-40 52 41 41 c22 22 47 57 56 77 l15 35
24 -59 c13 -32 44 -117 68 -189z m-4250 -239 c9 -22 22 -46 29 -54 6 -8 17
-31 23 -51 11 -33 12 -29 14 54 1 50 5 113 9 140 l7 50 6 -65 c4 -36 10 -90
14 -121 6 -51 3 -63 -27 -125 -32 -64 -34 -74 -37 -199 -6 -182 30 -343 116
-525 28 -61 31 -75 35 -210 6 -165 22 -235 73 -326 58 -106 230 -314 323 -392
28 -24 51 -48 51 -54 0 -11 -98 -3 -162 13 -32 8 -37 14 -43 49 -4 27 -13 41
-26 45 -11 4 -19 14 -18 23 3 32 -1 42 -17 42 -10 0 -14 6 -11 14 7 18 -12 36
-39 36 -14 0 -24 8 -27 21 -4 16 -11 20 -26 16 -16 -4 -26 3 -41 28 -25 40
-47 49 -85 35 -41 -16 -65 5 -114 100 -70 135 -110 324 -113 545 -2 124 -15
124 -17 0 -2 -221 63 -495 144 -601 31 -41 31 -46 -1 -38 -20 5 -26 2 -31 -15
-6 -25 -7 -25 -34 -8 -17 10 -22 9 -33 -5 -21 -28 -36 -21 -56 25 -67 151 -99
564 -68 890 12 127 20 153 31 97 33 -164 221 -490 283 -490 12 0 6 10 -22 34
-42 36 -108 151 -149 259 -67 178 -72 504 -14 861 l13 79 12 -69 c6 -38 19
-87 28 -108z m1830 43 c14 -46 28 -92 31 -101 5 -12 2 -18 -7 -18 -9 0 -19 28
-32 88 -9 48 -20 96 -23 107 -3 11 -3 17 1 14 3 -3 17 -43 30 -90z m-954 -46
c0 -8 -9 0 -50 45 l-45 47 48 -45 c26 -24 47 -45 47 -47z m2588 -98 c256 -507
396 -964 419 -1368 7 -130 11 -124 -152 -231 -149 -98 -154 -101 -161 -81 -4
9 -12 14 -20 11 -9 -3 -14 6 -16 27 -3 30 -5 32 -40 30 -21 -1 -51 -9 -68 -18
l-29 -15 29 65 c38 84 71 191 108 346 51 211 71 414 61 619 l-5 115 -2 -130
c-4 -246 -30 -446 -88 -673 -37 -145 -104 -328 -131 -354 -15 -16 -17 -16 -30
0 -12 16 -14 16 -27 0 -16 -22 -30 -23 -46 -2 -8 8 -22 20 -32 25 -15 8 -21 4
-35 -25 -14 -31 -20 -34 -45 -29 -22 4 -28 2 -28 -11 0 -12 -6 -15 -25 -10
-16 4 -25 2 -25 -6 0 -7 -7 -10 -15 -6 -8 3 -29 3 -45 -1 -26 -5 -30 -10 -30
-39 0 -27 -4 -34 -20 -34 -11 0 -20 -5 -20 -11 0 -14 -157 -6 -212 10 l-37 12
58 77 c32 42 73 103 92 135 30 51 43 63 116 102 125 66 263 181 340 282 31 41
63 141 63 198 0 115 -73 330 -115 341 l-22 6 22 71 c52 162 125 568 125 690 0
38 1 40 14 22 7 -11 41 -74 74 -140z m1684 68 c29 -31 78 -123 77 -144 0 -8
-8 6 -19 31 -10 25 -23 44 -28 43 -5 -1 -9 5 -8 15 1 11 -5 16 -15 14 -9 -1
-19 5 -23 13 -3 9 -2 13 4 10 6 -3 10 -2 10 4 0 5 -24 30 -52 56 -36 32 -40
37 -13 17 22 -17 52 -43 67 -59z m-100 37 c6 0 5 7 -3 18 -13 16 -12 16 4 3
17 -14 17 -16 3 -27 -13 -9 -14 -17 -6 -38 19 -52 12 -147 -15 -198 -14 -26
-24 -53 -23 -60 2 -7 -3 -12 -10 -10 -8 1 -12 -3 -10 -10 3 -7 10 -13 16 -13
5 0 13 -3 16 -6 4 -3 -6 -5 -21 -4 -39 3 -53 -8 -23 -16 23 -6 22 -7 -7 -8
-40 -1 -41 8 -7 40 14 13 39 50 55 81 39 77 40 159 3 238 -23 50 -23 53 -4 33
11 -13 26 -23 32 -23z m-2605 -261 c22 -48 57 -114 76 -148 20 -33 34 -61 31
-61 -2 0 -30 13 -62 29 -31 16 -75 34 -98 41 l-41 12 -6 167 c-4 91 -9 184
-13 206 -4 29 6 11 34 -60 22 -55 57 -139 79 -186z m-570 155 c-3 -3 -12 -4
-19 -1 -8 3 -5 6 6 6 11 1 17 -2 13 -5z m47 -90 c20 -42 36 -80 36 -85 0 -5
-11 -9 -24 -9 -19 0 -27 10 -44 58 -33 90 -37 112 -19 112 9 0 30 -31 51 -76z
m-1780 -119 c35 -246 47 -376 44 -494 l-3 -124 -48 129 c-63 169 -80 253 -80
394 0 122 12 194 41 237 l17 27 6 -30 c4 -16 14 -78 23 -139z m5093 83 c-3 -7
-5 -2 -5 12 0 14 2 19 5 13 2 -7 2 -19 0 -25z m-4607 -43 c0 -16 -35 -21 -44
-6 -8 12 4 21 26 21 10 0 18 -7 18 -15z m1694 -97 c-13 -21 -24 8 -23 60 l1
57 13 -54 c8 -30 11 -59 9 -63z m2901 63 c-22 -44 -27 -38 -7 9 9 21 18 35 20
30 2 -5 -4 -22 -13 -39z m-857 15 c25 -13 29 -23 40 -98 27 -190 34 -336 28
-548 -8 -254 -22 -379 -25 -212 -2 201 -39 429 -107 665 -19 65 -34 132 -34
148 0 26 4 29 30 29 20 0 30 5 30 15 0 19 4 19 38 1z m-2388 -10 c0 -2 3 -12
6 -21 6 -14 1 -16 -27 -13 -46 4 -55 38 -10 38 17 0 31 -2 31 -4z m3144 -58
c-5 -8 -2 -9 10 -5 10 4 15 3 11 -3 -9 -15 7 -12 35 6 18 11 16 8 -5 -10 -30
-25 -51 -35 -41 -17 3 5 -1 12 -10 15 -13 5 -12 26 2 26 3 0 2 -5 -2 -12z
m-4308 -37 c-4 -6 -16 -11 -27 -11 -21 0 -27 35 -6 43 16 6 41 -18 33 -32z
m4162 18 c27 -1 27 -1 -3 -8 -16 -4 -33 -3 -36 2 -4 5 -10 4 -13 -2 -4 -6 -4
-11 1 -12 4 0 28 -3 53 -6 25 -4 63 -6 85 -6 34 1 37 0 16 -8 -14 -6 -55 -5
-105 1 -44 5 -86 10 -93 10 -7 0 -13 4 -13 8 0 11 52 31 68 26 8 -2 26 -5 40
-5z m-699 -63 c6 -24 13 -52 17 -62 4 -12 -3 -8 -20 11 -15 19 -25 42 -26 63
0 46 16 40 29 -12z m648 8 c-3 -3 -12 -4 -19 -1 -8 3 -5 6 6 6 11 1 17 -2 13
-5z m-2337 -84 c6 -11 9 -20 7 -20 -2 0 -12 9 -22 20 -10 11 -13 20 -7 20 6 0
16 -9 22 -20z m-465 -40 c8 -13 -13 -40 -31 -40 -17 0 -18 22 -2 38 15 15 25
15 33 2z m-2659 -287 c-1 -297 -4 -270 49 -408 5 -14 -1 -11 -19 10 -51 57
-76 105 -97 182 -20 70 -21 85 -10 153 10 63 72 340 76 340 1 0 1 -125 1 -277z
m3817 23 c45 -95 61 -164 62 -266 0 -80 -4 -103 -24 -143 -30 -61 -97 -134
-202 -220 -68 -55 -196 -137 -215 -137 -2 0 11 29 28 65 31 63 36 68 104 100
73 35 144 100 144 133 0 12 -6 7 -19 -13 -24 -40 -72 -80 -132 -111 -61 -30
-63 -30 -45 4 7 15 37 90 65 167 129 355 154 395 206 334 14 -17 25 -24 25
-17 0 26 -46 61 -71 53 -17 -6 -21 -4 -16 8 3 8 11 33 18 56 17 58 40 54 72
-13z m-3777 -256 c9 -41 27 -105 39 -142 26 -76 21 -87 -12 -30 -35 62 -53
149 -58 277 -4 110 -3 114 5 45 6 -41 17 -109 26 -150z m4696 169 l-10 -34 -1
45 c-1 31 2 41 10 33 7 -7 7 -21 1 -44z m-4842 -96 c-17 -110 -15 -258 4 -310
8 -24 13 -43 11 -43 -7 0 -101 191 -114 232 -12 37 -12 38 37 95 28 32 54 71
57 86 14 54 16 18 5 -60z m64 -164 c31 -54 72 -99 111 -123 22 -13 46 -50 90
-139 62 -125 123 -227 137 -227 4 0 -6 22 -22 48 -32 52 -64 121 -75 162 -3
14 17 -18 45 -70 28 -52 62 -109 75 -126 14 -18 25 -35 25 -37 0 -8 -160 51
-188 69 -99 63 -209 199 -244 299 -18 53 -22 133 -11 224 l6 55 13 -46 c8 -25
25 -65 38 -89z m-100 -134 c74 -131 213 -282 300 -327 47 -24 173 -68 194 -68
8 0 45 -28 82 -63 70 -65 213 -147 253 -146 14 0 3 8 -28 19 -27 11 -68 34
-89 52 -22 18 -46 33 -53 34 -20 3 -43 24 -43 40 0 7 -6 11 -13 8 -7 -2 -24 7
-37 21 -13 14 -18 25 -12 25 6 0 16 -8 21 -17 9 -15 12 -16 20 -4 7 11 12 7
24 -16 14 -27 57 -72 46 -48 -3 6 -24 48 -46 95 -41 83 -41 85 -20 89 12 1 24
7 28 12 3 5 18 5 36 0 26 -7 32 -6 35 6 3 18 66 27 84 12 6 -5 24 -4 43 4 32
12 34 11 66 -27 22 -26 38 -37 48 -33 10 4 18 -1 22 -13 3 -10 19 -22 36 -25
22 -5 29 -11 25 -22 -4 -9 1 -17 14 -20 14 -4 20 -14 20 -35 0 -20 6 -31 18
-34 13 -4 17 -16 16 -57 -1 -74 -1 -75 -33 -82 -17 -3 -31 -14 -34 -25 -4 -16
-10 -18 -34 -11 -17 5 -53 7 -81 6 -33 -2 -55 2 -62 10 -8 10 -20 11 -47 3
-25 -7 -43 -6 -59 1 -13 6 -30 8 -38 5 -8 -3 -23 -1 -34 5 -13 7 -22 7 -31 -2
-9 -9 -14 -9 -19 -1 -4 7 -16 13 -27 15 -11 2 -22 15 -25 29 -5 22 -12 25 -53
28 -26 2 -47 5 -47 7 0 2 5 16 11 32 8 22 7 30 -7 40 -16 12 -16 14 0 32 17
19 17 21 2 37 -9 9 -20 14 -23 10 -4 -3 -1 -12 5 -18 9 -9 8 -16 -6 -31 -16
-18 -16 -20 2 -32 29 -22 12 -48 -43 -68 -73 -26 -187 -105 -262 -184 -136
-141 -209 -287 -209 -418 l1 -70 22 65 c37 110 140 227 272 312 33 21 55 38
48 38 -21 0 -158 -98 -210 -152 -28 -29 -68 -80 -87 -112 -40 -67 -43 -64 -20
15 35 117 123 250 232 349 109 100 247 172 266 141 4 -6 24 -11 46 -11 32 0
39 -4 44 -25 5 -18 13 -25 31 -25 14 0 25 -4 25 -10 0 -5 15 -10 33 -9 82 3
198 -9 213 -21 12 -11 20 -11 34 -2 30 18 68 -8 130 -90 66 -87 128 -129 202
-136 l51 -5 -29 -15 c-16 -8 -58 -17 -94 -20 -57 -4 -73 -1 -117 21 -28 15
-60 38 -71 52 l-20 25 -12 -67 c-6 -37 -22 -91 -36 -119 -33 -69 -141 -214
-157 -210 -6 1 -9 1 -4 -1 12 -8 -3 -22 -17 -17 -14 5 -30 -22 -21 -36 3 -5 0
-12 -5 -15 -8 -5 -9 12 -5 57 17 170 46 298 96 421 34 84 31 103 -5 26 -60
-135 -103 -320 -116 -504 -7 -106 -7 -107 -9 -35 -2 41 -5 69 -8 63 -7 -18
-23 -16 -23 2 0 9 -6 12 -15 9 -8 -4 -15 -2 -15 4 0 11 -65 52 -82 52 -6 0
-19 7 -29 16 -10 9 -29 17 -43 18 -14 0 -26 5 -26 9 0 18 -36 0 -47 -23 -11
-24 -12 -23 -13 18 0 26 -4 41 -10 37 -5 -3 -10 -17 -10 -31 0 -14 -4 -23 -9
-20 -4 3 -7 18 -5 33 4 22 3 24 -4 8 -9 -19 -9 -19 -20 0 -7 12 -12 15 -12 6
0 -9 -8 -11 -25 -7 -17 4 -25 2 -25 -6 0 -10 -2 -10 -8 0 -13 19 -32 -54 -34
-129 -2 -61 -2 -61 -6 -14 -14 183 92 456 233 601 29 30 52 54 51 54 -1 0 -16
-10 -33 -23 -27 -19 -50 -45 -117 -127 -28 -35 -107 -211 -128 -285 -18 -66
-22 -105 -22 -222 0 -79 -3 -143 -6 -143 -3 0 -42 -22 -87 -49 -72 -42 -88
-48 -122 -44 -25 4 -51 0 -71 -11 -23 -11 -37 -13 -50 -6 -10 6 -28 10 -40 10
-12 0 -36 12 -54 27 -126 107 -742 277 -891 245 -54 -11 -51 -30 12 -68 50
-30 58 -44 24 -44 -22 0 -88 -46 -101 -70 -8 -15 -6 -23 12 -40 21 -20 22 -22
6 -31 -27 -15 -22 -26 21 -55 l40 -26 -24 -36 c-13 -21 -29 -52 -36 -69 -13
-40 -26 -41 -87 -8 -58 31 -110 32 -147 3 -24 -18 -28 -19 -36 -6 -5 8 -22 21
-38 28 l-29 12 23 86 c27 99 71 212 141 357 97 205 255 477 318 551 l35 41
259 6 c235 6 270 5 370 -14 132 -24 131 -24 214 68 101 110 108 146 48 225
-21 29 -53 80 -71 115 -17 34 -40 70 -50 79 -24 22 -62 12 -87 -24 -21 -29
-52 -112 -52 -138 0 -12 -7 -14 -32 -9 -97 21 -96 27 37 335 20 47 48 97 63
113 l26 27 13 -25 c29 -55 94 -38 159 41 l38 46 27 -71 c15 -39 43 -100 63
-136z m283 53 c-3 -8 -6 -5 -6 6 -1 11 2 17 5 13 3 -3 4 -12 1 -19z m10 -85
c-3 -10 -5 -2 -5 17 0 19 2 27 5 18 2 -10 2 -26 0 -35z m201 -43 c0 -9 -3 -7
-8 5 -5 11 -8 29 -8 40 0 16 2 15 8 -5 4 -14 8 -32 8 -40z m-108 -74 c0 -12
-5 -7 -19 24 -11 24 -11 24 3 6 9 -11 16 -24 16 -30z m127 -18 c-3 -8 -6 -5
-6 6 -1 11 2 17 5 13 3 -3 4 -12 1 -19z m-99 -43 c-3 -3 -9 2 -12 12 -6 14 -5
15 5 6 7 -7 10 -15 7 -18z m2794 -107 c-8 -8 -9 -4 -5 13 4 13 8 18 11 10 2
-7 -1 -18 -6 -23z m209 -21 c-10 -9 -11 -8 -5 6 3 10 9 15 12 12 3 -3 0 -11
-7 -18z m1139 -132 c-10 -69 -37 -195 -44 -202 -1 -1 -23 6 -49 15 -26 10 -45
21 -41 25 3 3 -3 22 -15 41 -12 19 -20 40 -19 47 2 7 -7 18 -19 23 -12 6 -24
20 -25 31 -3 19 -4 18 -10 -3 -5 -18 -1 -26 18 -34 14 -7 23 -17 20 -23 -2 -7
4 -25 15 -41 27 -42 24 -51 -20 -58 -80 -12 -241 -115 -241 -153 0 -7 -6 -13
-12 -13 -7 0 -40 -12 -73 -26 -77 -33 -119 -39 -135 -19 -18 21 -34 19 -69
-11 -26 -21 -34 -24 -46 -14 -12 10 -18 10 -29 1 -9 -8 -16 -8 -20 -2 -5 7
-15 7 -32 1 -34 -13 -34 -13 -34 10 0 11 -6 23 -14 26 -8 3 -16 14 -19 25 -3
10 -12 19 -21 19 -9 0 -16 8 -16 20 0 10 -9 24 -20 30 -17 9 -18 14 -9 33 6
12 23 35 38 50 14 15 26 36 26 45 0 10 9 18 23 20 18 3 22 10 22 38 0 34 1 35
33 33 18 -2 37 0 44 4 6 4 18 4 26 1 9 -3 20 2 26 14 7 14 17 18 31 15 14 -4
24 3 37 25 l17 30 39 -26 c39 -26 40 -26 54 -7 11 17 15 17 23 6 7 -12 20 -9
79 18 82 38 105 37 109 -2 2 -15 9 -27 18 -27 8 0 14 -5 14 -10 0 -14 72 -2
85 14 6 7 42 32 80 56 39 24 90 59 115 78 l45 34 3 -39 c2 -21 -2 -74 -8 -118z
m-1150 39 c-34 -79 -63 -134 -71 -134 -4 0 -14 3 -23 6 -12 4 -5 19 31 67 25
34 52 75 60 90 23 46 25 24 3 -29z m-270 22 c0 -3 -4 -8 -10 -11 -5 -3 -10 -1
-10 4 0 6 5 11 10 11 6 0 10 -2 10 -4z m204 -48 c-41 -57 -130 -153 -98 -106
11 15 22 28 27 28 4 0 7 6 7 13 0 7 9 18 21 25 16 10 19 20 15 40 -4 18 -3 22
2 13 8 -10 13 -8 28 13 11 14 23 26 27 26 5 0 -8 -24 -29 -52z m91 11 c-5 -15
-4 -19 5 -14 17 10 -1 -21 -35 -60 l-25 -30 11 28 c7 15 16 27 21 27 5 0 6 5
2 12 -5 7 -3 8 6 3 10 -6 12 -4 7 8 -3 10 -4 24 -1 32 9 23 16 18 9 -6z m-324
-12 c-10 -9 -11 -8 -5 6 3 10 9 15 12 12 3 -3 0 -11 -7 -18z m-66 -74 c-3 -16
-29 -71 -58 -123 -59 -108 -162 -220 -237 -257 -25 -13 -38 -23 -30 -23 8 0
35 11 59 25 23 14 47 25 53 25 5 0 42 16 81 35 39 19 73 33 75 30 3 -3 1 -19
-4 -37 -8 -27 -21 -39 -74 -66 -36 -18 -105 -44 -155 -57 -49 -14 -139 -38
-200 -55 -60 -17 -159 -41 -220 -55 -151 -34 -246 -70 -280 -106 -35 -35 -41
-36 -49 -5 -3 14 -22 45 -41 70 -36 47 -41 74 -26 140 5 27 12 30 70 42 84 17
331 96 453 145 120 48 362 169 483 243 50 30 94 55 99 55 4 1 5 -11 1 -26z
m35 7 c-6 -11 -13 -20 -16 -20 -2 0 0 9 6 20 6 11 13 20 16 20 2 0 0 -9 -6
-20z m233 -44 c23 -18 22 -26 -13 -74 -45 -62 -36 -64 18 -4 l47 52 45 -16
c25 -8 84 -18 131 -21 l87 -6 -34 -44 c-39 -51 -42 -68 -15 -83 13 -6 17 -17
14 -30 -3 -11 -1 -20 5 -20 17 0 59 -43 64 -65 2 -14 11 -20 31 -20 21 1 27
-3 23 -15 -3 -8 -18 -52 -33 -96 -28 -82 -28 -82 -68 -89 -75 -12 -130 -23
-161 -30 -30 -7 -31 -6 -27 22 4 27 1 31 -45 51 -28 12 -55 22 -61 22 -6 0
-11 9 -11 20 0 14 -21 34 -68 64 -58 38 -71 52 -97 106 -23 49 -35 62 -57 67
-15 3 -28 8 -28 12 0 3 17 18 38 32 20 15 71 60 112 101 41 42 77 76 80 76 3
1 13 -5 23 -12z m-2043 -27 l85 -2 65 -52 c36 -28 97 -73 135 -100 39 -27 120
-86 181 -132 79 -59 120 -83 140 -83 28 0 28 0 8 -15 -12 -8 -27 -28 -33 -44
-17 -40 -103 -111 -135 -111 -37 0 -118 -29 -141 -51 -16 -14 -50 -21 -157
-31 l-136 -12 -42 38 c-22 20 -53 42 -67 49 -23 10 -28 8 -55 -22 l-29 -32
-74 12 c-40 6 -102 10 -138 7 l-64 -4 42 62 c47 69 84 156 88 209 1 19 3 35 4
35 1 0 24 -14 50 -30 63 -40 116 -53 178 -45 56 7 146 51 196 97 29 26 30 28
7 14 -16 -9 -39 -23 -53 -32 -42 -27 -135 -14 -197 28 -43 29 -148 149 -148
171 0 4 11 5 25 1 18 -4 27 -1 31 10 3 9 12 16 20 16 8 0 14 5 14 10 0 6 5 9
11 8 6 -2 19 11 28 28 15 30 17 30 46 18 17 -7 69 -14 115 -15z m1910 -44
c-24 -25 -46 -45 -49 -45 -3 0 15 20 39 45 24 25 46 45 49 45 3 0 -15 -20 -39
-45z m-140 -109 c0 -3 -15 -14 -32 -26 l-33 -22 30 26 c31 27 35 29 35 22z
m-124 -78 c4 -6 3 -8 -3 -5 -6 4 -16 0 -23 -8 -7 -8 -17 -15 -22 -15 -6 0 0 9
13 20 29 23 26 23 35 8z m1200 -110 c-5 -75 -11 -107 -23 -121 -12 -12 -20
-45 -24 -99 -14 -161 -108 -256 -156 -157 -6 13 -18 88 -25 167 -16 162 -13
170 53 226 36 31 144 86 168 86 12 0 13 -18 7 -102z m-208 56 c12 -8 28 -12
35 -9 6 4 -1 -4 -17 -16 -44 -35 -64 -90 -59 -162 9 -133 24 -241 38 -267 35
-68 140 -27 160 63 6 26 8 24 54 -45 26 -40 55 -79 64 -87 23 -18 22 -37 0
-20 -17 13 -17 12 -2 -6 9 -11 14 -27 12 -35 -4 -13 -3 -13 6 0 5 8 7 18 5 22
-3 4 2 8 10 8 13 0 16 -14 15 -87 -1 -72 -3 -81 -9 -48 -4 22 -6 44 -3 48 3 4
1 16 -3 25 -6 14 -9 11 -14 -13 -7 -29 -8 -29 -9 -4 -1 24 -5 27 -53 32 -56 5
-71 1 -49 -12 24 -15 -7 -23 -43 -11 -56 18 -107 48 -147 85 -36 33 -55 37
-26 5 10 -12 9 -12 -4 -2 -9 7 -31 42 -50 79 -31 60 -34 75 -34 149 0 99 -12
87 -40 -40 -17 -76 -17 -188 0 -241 3 -11 -5 1 -19 27 -54 98 -70 255 -42 389
17 78 50 148 71 150 8 1 27 2 43 3 15 1 38 9 52 19 30 21 30 21 58 1z m-590
-188 c-7 -8 -15 -12 -17 -11 -5 6 10 25 20 25 5 0 4 -6 -3 -14z m796 -148 c4
-10 15 -20 25 -23 19 -6 41 -45 70 -124 l20 -54 -31 29 c-17 16 -50 59 -74 95
l-43 66 7 79 7 79 6 -65 c3 -36 9 -73 13 -82z m-699 114 c-3 -3 -11 0 -18 7
-9 10 -8 11 6 5 10 -3 15 -9 12 -12z m240 -87 c0 -30 -1 -55 -3 -55 -17 0 -42
25 -42 41 0 20 27 69 39 69 3 0 6 -25 6 -55z m-1954 19 c-25 -31 -27 -60 -6
-71 13 -7 13 -14 0 -57 -18 -59 -19 -113 -3 -118 17 -6 -49 -63 -109 -94 -30
-15 -55 -25 -57 -23 -2 2 2 25 9 51 12 49 43 100 95 157 17 18 28 36 25 40 -4
3 -20 -9 -35 -26 l-29 -32 -6 37 c-3 20 -8 48 -10 62 -2 14 1 32 6 42 8 15 66
41 114 51 11 3 21 5 23 6 2 0 -6 -11 -17 -25z m-626 -36 c4 -3 -3 -24 -14 -46
-17 -33 -26 -40 -58 -45 -58 -10 -83 -32 -83 -74 0 -23 -9 -45 -25 -65 -14
-16 -25 -36 -25 -44 0 -10 -14 -14 -53 -14 -28 0 -68 -4 -86 -10 -19 -5 -36
-8 -38 -6 -2 2 -7 42 -10 89 l-6 85 64 72 64 72 132 -4 c72 -2 135 -6 138 -10z
m-741 -79 c6 -53 5 -56 -20 -68 -15 -6 -28 -10 -30 -8 -3 2 5 34 17 71 11 38
22 66 23 64 2 -1 6 -28 10 -59z m3477 -81 c30 -58 122 -153 184 -188 53 -31
156 -60 213 -60 32 0 32 -1 32 -47 -1 -58 -33 -102 -83 -110 -31 -5 -33 -3
-55 49 -59 142 -205 233 -261 162 -25 -32 -22 -52 30 -194 22 -58 39 -124 39
-146 0 -38 -4 -45 -52 -82 -29 -22 -77 -52 -105 -66 -29 -14 -96 -56 -149 -92
-114 -78 -124 -82 -124 -57 0 10 -10 36 -21 58 -17 32 -20 49 -15 93 7 59 30
122 44 122 5 0 12 -9 15 -21 9 -33 31 -17 44 32 14 55 16 176 3 184 -19 12
-10 52 20 90 17 21 30 40 30 43 0 2 -10 21 -22 41 -34 54 -32 137 5 182 15 19
38 49 49 68 l22 34 13 -57 c16 -72 53 -146 98 -199 19 -22 35 -44 35 -49 0 -4
4 -8 8 -8 5 0 -5 28 -22 63 -26 54 -31 76 -34 164 -5 127 4 160 24 86 7 -29
23 -72 35 -95z m-3520 105 c-12 -20 -14 -14 -5 12 4 9 9 14 11 11 3 -2 0 -13
-6 -23z m421 -15 c-7 -7 -12 -8 -12 -2 0 6 3 14 7 17 3 4 9 5 12 2 2 -3 -1
-11 -7 -17z m-1819 -5 c-7 -2 -19 -2 -25 0 -7 3 -2 5 12 5 14 0 19 -2 13 -5z
m50 0 c-7 -2 -19 -2 -25 0 -7 3 -2 5 12 5 14 0 19 -2 13 -5z m4285 -23 c39
-36 43 -87 12 -138 -42 -69 -130 -77 -236 -21 -31 16 -57 29 -59 29 -1 0 -6
-21 -10 -47 -9 -62 -26 -93 -71 -133 -34 -30 -41 -32 -93 -28 -66 5 -120 29
-169 75 -19 18 -38 30 -41 25 -33 -51 -61 -83 -100 -115 -44 -37 -48 -38 -105
-34 -76 7 -102 27 -145 110 -37 72 -37 93 1 55 36 -36 128 -31 233 12 52 21
98 33 132 34 28 1 55 4 59 9 4 4 25 7 46 7 50 0 147 47 127 62 -11 8 -10 9 4
4 10 -3 34 1 55 9 20 8 73 24 117 35 75 19 113 34 175 65 34 18 31 18 68 -15z
m-4211 14 c-3 -3 -12 -4 -19 -1 -8 3 -5 6 6 6 11 1 17 -2 13 -5z m-152 -14 c3
-6 -1 -7 -9 -4 -18 7 -21 14 -7 14 6 0 13 -4 16 -10z m212 4 c-3 -3 -12 -4
-19 -1 -8 3 -5 6 6 6 11 1 17 -2 13 -5z m130 -30 c-3 -3 -12 -4 -19 -1 -8 3
-5 6 6 6 11 1 17 -2 13 -5z m40 -10 c-3 -3 -12 -4 -19 -1 -8 3 -5 6 6 6 11 1
17 -2 13 -5z m40 -10 c-3 -3 -12 -4 -19 -1 -8 3 -5 6 6 6 11 1 17 -2 13 -5z
m1162 -191 c35 -43 109 -104 142 -115 4 -2 3 -19 -4 -39 -10 -30 -16 -35 -32
-28 -11 4 -36 8 -56 8 -42 1 -49 -10 -49 -69 0 -27 -8 -48 -27 -72 -15 -18
-28 -35 -30 -37 -1 -2 -13 9 -25 25 -77 101 -261 269 -337 308 l-33 18 87 50
c48 27 89 48 90 46 2 -2 22 -40 44 -83 23 -46 58 -97 82 -120 l42 -40 -26 35
c-29 40 -50 138 -45 215 3 46 6 51 38 67 l34 18 32 -68 c17 -37 50 -90 73
-119z m-949 127 c8 -5 11 -10 5 -10 -5 0 -17 5 -25 10 -8 5 -10 10 -5 10 6 0
17 -5 25 -10z m-660 -4 c0 -2 -8 -10 -17 -17 -16 -13 -17 -12 -4 4 13 16 21
21 21 13z m714 -15 c4 -5 -3 -7 -14 -4 -23 6 -26 13 -6 13 8 0 17 -4 20 -9z
m2359 -16 c31 0 57 -2 57 -5 0 -3 -5 -21 -10 -41 -10 -36 -11 -36 -63 -36 -29
-1 -75 -10 -105 -22 -29 -11 -61 -21 -70 -21 -25 0 -61 30 -45 36 7 3 41 28
75 54 48 37 68 48 83 42 11 -4 46 -7 78 -7z m2087 -83 c0 -7 -74 55 -95 79
-11 13 6 1 38 -26 31 -27 57 -51 57 -53z m-1983 71 c15 -10 45 -17 76 -17 l50
0 34 -72 c35 -77 35 -98 0 -108 -50 -13 -68 -6 -119 49 -28 31 -62 58 -75 61
-18 5 -22 11 -17 23 4 9 9 31 12 49 5 37 5 37 39 15z m-2341 -29 c18 -14 18
-14 -6 -3 -31 14 -36 19 -24 19 6 0 19 -7 30 -16z m-403 -11 c-7 -2 -19 -2
-25 0 -7 3 -2 5 12 5 14 0 19 -2 13 -5z m-150 -20 c-7 -2 -19 -2 -25 0 -7 3
-2 5 12 5 14 0 19 -2 13 -5z m3224 -9 c-3 -3 -12 -4 -19 -1 -8 3 -5 6 6 6 11
1 17 -2 13 -5z m1771 -40 c42 -13 70 -23 61 -23 -32 -2 -147 39 -160 57 -13
15 -12 16 4 3 10 -8 53 -25 95 -37z m-4735 29 c-7 -2 -19 -2 -25 0 -7 3 -2 5
12 5 14 0 19 -2 13 -5z m2585 -19 c46 -19 90 -60 106 -99 50 -119 13 -211
-107 -261 -25 -10 -48 -26 -50 -36 -4 -14 -15 -16 -62 -14 -31 2 -62 9 -68 15
-6 6 -23 11 -38 11 -21 0 -28 6 -33 26 -4 14 -20 37 -36 51 -63 52 -48 156 35
239 76 77 171 102 253 68z m-2123 -14 c3 -6 -1 -7 -9 -4 -18 7 -21 14 -7 14 6
0 13 -4 16 -10z m-905 -90 c7 -12 17 -17 28 -14 14 5 15 4 2 -5 -8 -6 -25 -11
-36 -11 -12 0 -32 -9 -45 -19 l-24 -19 27 -29 c31 -32 37 -47 23 -50 -5 -2
-10 0 -10 5 0 13 -16 32 -27 32 -6 0 -5 -7 3 -17 13 -17 13 -17 -7 0 -11 9
-25 17 -31 17 -5 0 -17 8 -26 18 -15 16 -14 22 9 72 37 80 41 83 75 59 16 -11
34 -29 39 -39z m-433 -52 c24 -32 208 -496 282 -712 47 -137 127 -412 138
-479 6 -33 23 -36 23 -3 0 14 9 62 20 108 45 192 50 404 10 478 -23 43 -160
241 -225 325 -59 75 -142 155 -162 155 -5 0 -19 22 -30 50 l-21 50 26 20 c44
35 64 34 153 -6 157 -71 423 -314 486 -444 47 -98 109 -291 161 -505 33 -132
34 -137 23 -130 -6 3 -13 -7 -17 -22 -9 -38 -32 -73 -47 -73 -7 0 -30 30 -51
68 -61 104 -95 143 -126 140 -14 -2 -25 -9 -25 -18 0 -8 -3 -19 -6 -25 -4 -5
2 -53 13 -105 14 -74 16 -103 8 -131 -5 -20 -10 -54 -10 -76 0 -32 -11 -57
-55 -122 -62 -94 -109 -189 -139 -285 -10 -29 -22 -9 -40 69 -27 113 -66 249
-77 269 -6 10 -27 60 -46 110 -19 50 -48 119 -64 154 -16 35 -29 67 -29 71 0
5 -7 14 -15 21 -8 7 -15 19 -15 27 0 8 -6 21 -14 28 -12 13 -57 145 -107 318
-12 42 -24 76 -26 74 -2 -2 6 -42 17 -88 11 -46 23 -120 27 -164 6 -74 5 -79
-10 -66 -15 12 -17 11 -17 -3 0 -10 -4 -14 -10 -11 -5 3 -10 -4 -11 -17 -2
-57 -29 73 -55 267 -16 118 -15 141 5 339 7 67 8 128 1 187 -13 110 1 194 29
179 10 -5 22 -15 28 -22z m3610 -85 c-3 -10 -5 -4 -5 12 0 17 2 24 5 18 2 -7
2 -21 0 -30z m-3146 -40 c13 -16 12 -17 -3 -4 -10 7 -18 15 -18 17 0 8 8 3 21
-13z m3130 -11 c-5 -10 -18 -25 -27 -33 -11 -9 -9 -2 6 19 26 35 36 42 21 14z
m-441 -28 c8 -8 9 -14 4 -13 -5 1 -22 -3 -37 -9 -16 -7 -34 -12 -40 -11 -7 0
4 6 23 14 19 7 34 18 33 24 -4 15 2 14 17 -5z m-3039 -11 c13 -16 12 -17 -3
-4 -10 7 -18 15 -18 17 0 8 8 3 21 -13z m434 -2 c3 -5 2 -12 -3 -15 -5 -3 -9
1 -9 9 0 17 3 19 12 6z m-628 -23 c-3 -8 -6 -5 -6 6 -1 11 2 17 5 13 3 -3 4
-12 1 -19z m594 5 c13 -16 12 -17 -3 -4 -10 7 -18 15 -18 17 0 8 8 3 21 -13z
m2686 -23 c9 -24 17 -30 42 -30 16 0 33 -5 36 -10 4 -6 23 -10 43 -9 42 3 82
-15 82 -36 0 -23 39 -132 83 -230 70 -158 173 -326 303 -496 l43 -57 -58 -6
c-189 -21 -440 -126 -547 -227 l-30 -29 -48 16 c-34 12 -69 15 -120 12 -93 -6
-192 -56 -265 -133 l-51 -54 -6 27 c-30 125 -156 249 -272 268 -38 6 -44 11
-76 68 -48 84 -75 119 -159 205 -79 81 -171 150 -237 180 l-42 19 93 55 c313
184 919 441 1169 496 3 0 11 -12 17 -29z m352 -30 c8 -34 12 -63 9 -65 -2 -2
-10 22 -17 55 -8 36 -18 57 -24 53 -6 -3 -7 -1 -3 5 14 23 22 11 35 -48z m18
38 c-3 -8 -6 -5 -6 6 -1 11 2 17 5 13 3 -3 4 -12 1 -19z m-517 2 c-8 -5 -22
-9 -30 -9 -10 0 -8 3 5 9 27 12 43 12 25 0z m436 -15 c-11 -8 -26 -15 -33 -15
-7 0 -17 -9 -23 -20 -9 -16 -6 -36 11 -90 12 -39 25 -70 29 -70 4 0 7 -8 6
-17 0 -10 6 -18 14 -18 10 0 14 -10 13 -28 -1 -15 2 -25 7 -22 6 3 7 0 5 -7
-3 -7 10 -44 29 -81 19 -38 36 -63 38 -56 3 9 7 7 11 -5 4 -11 3 -15 -4 -10
-14 8 -12 2 26 -64 17 -28 34 -52 38 -52 5 0 5 5 1 12 -4 7 -3 8 4 4 6 -4 8
-14 5 -23 -4 -9 -2 -14 3 -11 5 4 10 -5 10 -18 1 -13 0 -24 -1 -24 -2 0 -27
38 -55 85 -66 109 -151 289 -185 390 -31 91 -26 116 27 139 43 19 47 19 24 1z
m-3275 -47 c15 -28 5 -21 -21 15 -15 20 -17 27 -6 18 9 -8 22 -23 27 -33z
m452 -5 c-7 -2 -19 -2 -25 0 -7 3 -2 5 12 5 14 0 19 -2 13 -5z m1067 -7 c0 -3
-4 -8 -10 -11 -5 -3 -10 -1 -10 4 0 6 5 11 10 11 6 0 10 -2 10 -4z m-1833
-176 l2 -169 -37 -11 c-49 -13 -50 -13 -63 11 -9 17 -6 32 14 78 14 31 38 102
54 159 15 56 28 102 28 102 0 0 1 -76 2 -170z m1066 133 c2 -21 0 -46 -4 -55
-5 -9 -9 -26 -9 -36 0 -18 9 -16 105 25 58 24 131 48 163 53 74 11 433 33 439
26 5 -5 -49 -113 -79 -157 -9 -14 -15 -29 -11 -33 3 -3 1 -6 -5 -6 -17 0 -42
-30 -42 -51 0 -11 -6 -26 -12 -34 -7 -7 -42 -53 -77 -102 -67 -91 -153 -173
-182 -173 -9 0 -42 30 -74 67 -50 59 -251 273 -416 444 l-57 58 77 4 c42 1 99
4 127 5 l52 2 5 -37z m720 30 c-7 -2 -19 -2 -25 0 -7 3 -2 5 12 5 14 0 19 -2
13 -5z m-1408 -59 c9 -15 12 -23 6 -20 -11 7 -35 46 -28 46 3 0 12 -12 22 -26z
m3235 -49 c4 3 6 -5 2 -17 -5 -21 -6 -21 -13 -2 -4 10 -8 24 -8 29 1 6 3 4 6
-3 2 -6 8 -10 13 -7z m-3169 -42 c13 -16 12 -17 -3 -4 -10 7 -18 15 -18 17 0
8 8 3 21 -13z m5587 -10 c-10 -2 -26 -2 -35 0 -10 3 -2 5 17 5 19 0 27 -2 18
-5z m-5190 -38 c-3 -3 -9 2 -12 12 -6 14 -5 15 5 6 7 -7 10 -15 7 -18z m-347
-22 c13 -16 12 -17 -3 -4 -10 7 -18 15 -18 17 0 8 8 3 21 -13z m3258 -35 c13
-21 20 -38 17 -38 -7 0 -56 76 -56 87 0 10 14 -7 39 -49z m100 -12 c-3 -3 -11
5 -18 17 -13 21 -12 21 5 5 10 -10 16 -20 13 -22z m-166 -51 c-3 -9 -8 -14
-10 -11 -3 3 -2 9 2 15 9 16 15 13 8 -4z m107 5 c0 -5 -2 -10 -4 -10 -3 0 -8
5 -11 10 -3 6 -1 10 4 10 6 0 11 -4 11 -10z m-3393 -82 c-3 -8 -6 -5 -6 6 -1
11 2 17 5 13 3 -3 4 -12 1 -19z m4643 -113 c14 -19 14 -19 -2 -6 -10 7 -18 18
-18 24 0 6 1 8 3 6 1 -2 9 -13 17 -24z m1375 -25 c10 -11 16 -20 13 -20 -3 0
-13 9 -23 20 -10 11 -16 20 -13 20 3 0 13 -9 23 -20z m-4314 -48 c121 -77 194
-228 214 -439 5 -51 4 -73 -4 -73 -6 0 -11 4 -11 9 0 9 -75 101 -185 226 -164
187 -187 230 -149 283 22 32 78 30 135 -6z m1723 -18 c5 -14 4 -15 -9 -4 -17
14 -19 20 -6 20 5 0 12 -7 15 -16z m42 -61 c15 -20 23 -33 16 -29 -13 8 -56
66 -49 66 3 0 17 -17 33 -37z m-1989 -3 c40 -24 88 -88 120 -160 13 -30 28
-63 34 -72 16 -31 10 -33 -18 -6 -38 34 -125 86 -203 119 -36 15 -69 34 -75
43 -19 30 41 95 90 96 11 0 34 -9 52 -20z m-390 -52 c-3 -8 -6 -5 -6 6 -1 11
2 17 5 13 3 -3 4 -12 1 -19z m4991 -3 c-3 -3 -9 2 -12 12 -6 14 -5 15 5 6 7
-7 10 -15 7 -18z m-2553 3 c5 4 5 1 1 -6 -6 -10 -11 -10 -22 -1 -8 6 -14 14
-14 16 0 3 6 0 13 -6 8 -6 18 -7 22 -3z m-2460 -18 c-3 -5 -16 -15 -28 -21
-19 -9 -19 -8 3 10 28 23 34 26 25 11z m2476 -27 c13 -16 12 -17 -3 -4 -17 13
-22 21 -14 21 2 0 10 -8 17 -17z m2642 -113 l45 -105 -48 -17 c-76 -26 -249
-118 -276 -147 -14 -14 -35 -43 -46 -63 -14 -24 -37 -46 -65 -59 -57 -28 -194
-163 -268 -264 -32 -44 -59 -82 -61 -84 -2 -2 -25 -4 -50 -5 -43 -1 -49 -4
-61 -31 l-14 -30 6 29 c4 17 22 69 41 118 19 48 34 97 34 108 0 20 60 150 95
205 12 19 13 25 3 15 -22 -22 -174 -263 -213 -340 -19 -36 -38 -70 -42 -77 -7
-9 -27 -6 -86 12 -43 14 -85 25 -93 25 -9 0 -32 8 -51 17 -42 20 -59 54 -69
143 -9 86 -8 82 -22 107 -17 31 -15 41 4 15 8 -12 20 -20 25 -16 5 3 25 37 45
76 25 49 39 67 47 61 7 -5 31 -24 54 -41 22 -18 47 -30 55 -27 18 7 52 100 42
116 -4 8 -3 9 4 5 8 -5 12 0 12 13 0 28 11 26 86 -9 34 -16 74 -32 88 -36 23
-5 26 -3 26 19 0 14 6 27 14 30 17 7 36 67 36 117 0 19 3 45 6 57 6 20 8 21
43 8 21 -7 61 -25 89 -39 28 -14 59 -28 69 -30 10 -1 35 -10 55 -20 21 -9 41
-16 46 -16 6 0 15 20 21 45 6 24 22 55 36 69 14 14 25 32 25 41 0 8 9 15 20
15 13 0 20 7 20 18 0 14 24 26 108 53 59 20 110 34 114 30 3 -3 26 -53 51
-111z m-216 104 c-3 -3 -12 -4 -19 -1 -8 3 -5 6 6 6 11 1 17 -2 13 -5z m-4747
-34 c-6 -11 -13 -20 -16 -20 -2 0 0 9 6 20 6 11 13 20 16 20 2 0 0 -9 -6 -20z
m3407 -22 c-3 -8 -6 -5 -6 6 -1 11 2 17 5 13 3 -3 4 -12 1 -19z m1081 15 c-10
-2 -28 -2 -40 0 -13 2 -5 4 17 4 22 1 32 -1 23 -4z m-5001 -40 c-3 -10 -5 -4
-5 12 0 17 2 24 5 18 2 -7 2 -21 0 -30z m280 15 c-3 -8 -6 -5 -6 6 -1 11 2 17
5 13 3 -3 4 -12 1 -19z m-310 -50 c-3 -7 -5 -2 -5 12 0 14 2 19 5 13 2 -7 2
-19 0 -25z m2879 -4 c36 -27 68 -88 60 -117 -6 -26 -77 -69 -141 -86 -22 -5
-103 -20 -180 -31 -154 -24 -278 -60 -312 -92 -38 -36 -26 -10 31 66 97 128
221 230 329 268 70 25 175 21 213 -8z m1010 -404 l-4 -275 -33 -74 c-29 -66
-34 -72 -40 -50 -4 13 -8 65 -8 114 -2 121 -18 265 -37 331 -14 48 -14 57 1
99 10 32 13 62 9 95 -8 62 -2 86 37 140 l33 45 23 -75 c22 -72 22 -86 19 -350z
m21 388 c-3 -7 -5 -2 -5 12 0 14 2 19 5 13 2 -7 2 -19 0 -25z m30 -5 c-3 -10
-5 -4 -5 12 0 17 2 24 5 18 2 -7 2 -21 0 -30z m-3234 20 c-7 -2 -19 -2 -25 0
-7 3 -2 5 12 5 14 0 19 -2 13 -5z m44 -30 c28 -35 73 -107 73 -117 0 -6 -10 5
-21 24 -12 19 -24 37 -28 40 -3 3 -16 20 -29 38 -24 33 -20 45 5 15z m3151
-38 c0 -16 -2 -15 -8 5 -11 34 -11 60 0 35 5 -11 8 -29 8 -40z m-4951 13 c-3
-8 -6 -5 -6 6 -1 11 2 17 5 13 3 -3 4 -12 1 -19z m1673 19 c0 -2 -10 -12 -22
-23 l-23 -19 19 23 c18 21 26 27 26 19z m3307 -49 c-3 -8 -6 -5 -6 6 -1 11 2
17 5 13 3 -3 4 -12 1 -19z m-2423 -44 c3 -9 6 -25 6 -35 0 -20 -1 -20 -30 1
-16 12 -30 28 -30 36 0 19 46 18 54 -2z m4059 -4 c3 -12 1 -67 -4 -124 l-10
-102 -102 -105 c-56 -57 -115 -113 -131 -123 -16 -10 -69 -56 -116 -102 -66
-64 -89 -81 -98 -72 -7 7 -12 8 -12 3 0 -5 -7 0 -16 11 -11 13 -17 15 -20 7
-3 -7 -12 -13 -20 -13 -19 0 -13 27 33 150 37 98 107 246 148 311 25 38 134
105 254 155 70 29 87 30 94 4z m-6616 -72 c-2 -13 -4 -3 -4 22 0 25 2 35 4 23
2 -13 2 -33 0 -45z m1543 44 c0 -5 -7 -17 -15 -28 -14 -18 -14 -17 -4 9 12 27
19 34 19 19z m1104 2 c32 -12 58 -72 58 -135 0 -33 -2 -63 -5 -65 -6 -6 -87
79 -104 110 -32 55 -1 110 51 90z m3023 -20 c-3 -3 -12 -4 -19 -1 -8 3 -5 6 6
6 11 1 17 -2 13 -5z m-2512 -14 c6 -9 -73 -50 -97 -50 -5 0 0 14 12 30 15 21
30 30 50 30 16 0 32 -5 35 -10z m1119 -105 c60 -58 107 -108 104 -110 -2 -3
-65 17 -139 42 -124 44 -141 47 -224 46 -49 -1 -112 -8 -139 -17 -54 -16 -53
-15 19 36 81 58 194 106 250 107 12 1 63 -40 129 -104z m693 43 c-2 -13 -4 -5
-4 17 -1 22 1 32 4 23 2 -10 2 -28 0 -40z m-3467 29 c0 -2 -10 -12 -22 -23
l-23 -19 19 23 c18 21 26 27 26 19z m77 -44 c-3 -10 -5 -2 -5 17 0 19 2 27 5
18 2 -10 2 -26 0 -35z m1431 35 c26 -26 11 -48 -70 -103 -75 -50 -83 -53 -86
-35 -5 32 17 86 48 120 30 32 85 41 108 18z m-1908 -18 c19 -11 31 -19 25 -19
-5 0 -26 8 -45 19 -19 11 -30 19 -25 19 6 0 26 -8 45 -19z m290 -60 c-8 -5
-19 -10 -25 -10 -5 0 -3 5 5 10 8 5 20 10 25 10 6 0 3 -5 -5 -10z m-1403 -72
c-2 -13 -4 -5 -4 17 -1 22 1 32 4 23 2 -10 2 -28 0 -40z m4970 -165 c-1 -43
-3 -10 -3 72 0 83 2 118 3 78 2 -40 2 -107 0 -150z m-3390 175 c-3 -7 -5 -2
-5 12 0 14 2 19 5 13 2 -7 2 -19 0 -25z m939 -53 c18 -20 36 -51 40 -71 7 -36
1 -130 -8 -139 -3 -3 -23 11 -46 32 -22 21 -61 56 -86 79 -51 45 -58 75 -28
112 12 16 28 22 56 22 31 0 45 -7 72 -35z m-1589 -22 c-3 -10 -5 -4 -5 12 0
17 2 24 5 18 2 -7 2 -21 0 -30z m3153 12 c0 -2 -10 -9 -22 -15 -22 -11 -22
-10 -4 4 21 17 26 19 26 11z m-3163 -67 c-3 -8 -6 -5 -6 6 -1 11 2 17 5 13 3
-3 4 -12 1 -19z m3378 2 c10 -11 16 -20 13 -20 -3 0 -13 9 -23 20 -10 11 -16
20 -13 20 3 0 13 -9 23 -20z m1848 5 c-3 -9 -8 -14 -10 -11 -3 3 -2 9 2 15 9
16 15 13 8 -4z m-3012 -24 c16 -16 29 -34 29 -39 0 -25 -47 -62 -117 -92 -43
-18 -88 -42 -100 -53 l-23 -20 0 29 c1 39 30 102 71 148 55 63 96 71 140 27z
m-3144 -13 c-3 -8 -6 -5 -6 6 -1 11 2 17 5 13 3 -3 4 -12 1 -19z m3363 17 c0
-2 -10 -9 -22 -15 -22 -11 -22 -10 -4 4 21 17 26 19 26 11z m-2453 -77 c-3 -8
-6 -5 -6 6 -1 11 2 17 5 13 3 -3 4 -12 1 -19z m5453 -48 c-12 -16 -24 -30 -26
-30 -3 0 4 14 16 30 12 17 24 30 26 30 3 0 -4 -13 -16 -30z m-617 -25 c-3 -9
-8 -14 -10 -11 -3 3 -2 9 2 15 9 16 15 13 8 -4z m834 -22 c-3 -10 -5 -4 -5 12
0 17 2 24 5 18 2 -7 2 -21 0 -30z m-617 -43 c-12 -16 -24 -30 -26 -30 -3 0 4
14 16 30 12 17 24 30 26 30 3 0 -4 -13 -16 -30z m-249 -17 c-12 -20 -14 -14
-5 12 4 9 9 14 11 11 3 -2 0 -13 -6 -23z m-1186 7 c3 -6 -1 -7 -9 -4 -18 7
-21 14 -7 14 6 0 13 -4 16 -10z m605 -85 c0 -3 -22 6 -50 20 -27 14 -50 28
-50 30 0 3 23 -6 50 -20 28 -14 50 -28 50 -30z m760 8 c0 -5 -10 -19 -21 -33
l-21 -25 18 33 c18 32 24 38 24 25z m318 -48 c-6 -14 -13 -23 -15 -21 -5 5 15
46 22 46 3 0 -1 -11 -7 -25z m-1591 -7 c-3 -8 -6 -5 -6 6 -1 11 2 17 5 13 3
-3 4 -12 1 -19z m1276 -3 c-3 -9 -8 -14 -10 -11 -3 3 -2 9 2 15 9 16 15 13 8
-4z m-593 -5 c18 -12 2 -12 -25 0 -13 6 -15 9 -5 9 8 0 22 -4 30 -9z m1147
-57 c-3 -10 -5 -4 -5 12 0 17 2 24 5 18 2 -7 2 -21 0 -30z m-844 -10 c-7 -2
-19 -2 -25 0 -7 3 -2 5 12 5 14 0 19 -2 13 -5z m74 -25 c-3 -8 -6 -5 -6 6 -1
11 2 17 5 13 3 -3 4 -12 1 -19z m-992 -8 c10 -11 16 -20 13 -20 -3 0 -13 9
-23 20 -10 11 -16 20 -13 20 3 0 13 -9 23 -20z m1872 -32 c-3 -7 -5 -2 -5 12
0 14 2 19 5 13 2 -7 2 -19 0 -25z m-885 -28 c2 -22 0 -40 -4 -40 -5 0 -8 18
-8 40 0 22 2 40 4 40 2 0 6 -18 8 -40z m83 -80 c3 -6 -1 -7 -9 -4 -18 7 -21
14 -7 14 6 0 13 -4 16 -10z m-4988 -102 c-3 -8 -6 -5 -6 6 -1 11 2 17 5 13 3
-3 4 -12 1 -19z"/>
<path d="M4951 8006 c2 -2 42 -6 89 -9 59 -3 73 -3 45 3 -40 9 -142 13 -134 6z"/>
<path d="M4550 7990 c8 -5 20 -10 25 -10 6 0 3 5 -5 10 -8 5 -19 10 -25 10 -5
0 -3 -5 5 -10z"/>
<path d="M4771 7916 c2 -2 49 -13 104 -24 117 -24 241 -67 351 -123 44 -21 70
-32 59 -23 -32 25 -144 79 -223 108 -87 31 -309 79 -291 62z"/>
<path d="M4073 7695 c26 -7 64 -25 84 -41 21 -16 32 -20 27 -11 -20 35 -77 67
-118 66 l-41 -1 48 -13z"/>
<path d="M4373 7619 c-18 -5 -35 -15 -39 -21 -5 -8 -2 -9 12 -4 10 5 38 11 62
13 37 5 49 1 90 -28 34 -24 42 -27 27 -10 -38 44 -100 64 -152 50z"/>
<path d="M6525 7460 c-25 -11 1 -11 35 0 20 6 21 8 5 8 -11 0 -29 -3 -40 -8z"/>
<path d="M6518 7433 c7 -3 16 -2 19 1 4 3 -2 6 -13 5 -11 0 -14 -3 -6 -6z"/>
<path d="M6340 7337 c0 -2 21 -18 48 -35 26 -17 76 -61 112 -97 61 -63 63 -67
35 -61 -16 3 -66 8 -110 12 l-80 6 49 -51 c28 -28 52 -48 55 -46 2 3 -13 24
-35 46 -36 37 -37 40 -14 35 14 -2 56 -8 95 -11 42 -4 76 -12 87 -22 37 -33
16 7 -29 57 -87 97 -213 195 -213 167z"/>
<path d="M6340 7076 c0 -4 6 -17 14 -29 12 -18 65 -175 91 -264 6 -21 5 -21
-22 -8 -15 8 -63 27 -105 44 -60 22 -78 26 -78 15 0 -17 50 -145 61 -158 34
-38 -19 -18 -99 36 -52 36 -57 28 -49 -75 l6 -72 -34 60 c-19 33 -52 96 -74
140 -24 47 -41 71 -41 58 0 -12 18 -52 40 -90 22 -37 58 -103 80 -145 22 -43
42 -78 44 -78 1 0 1 45 -2 100 -3 55 -1 100 3 100 4 0 19 -8 33 -19 37 -26
132 -71 132 -62 0 4 -4 11 -10 17 -17 17 -70 174 -59 174 5 0 48 -16 95 -35
46 -19 86 -35 89 -35 3 0 5 8 5 17 0 24 -80 265 -93 282 -10 12 -8 13 13 7 14
-4 43 -9 65 -12 38 -4 37 -3 -10 10 -27 8 -60 17 -72 21 -13 4 -23 4 -23 1z"/>
<path d="M4865 6935 c4 -11 31 -89 61 -173 30 -83 54 -156 54 -161 0 -5 27
-96 59 -202 33 -107 67 -227 76 -267 10 -40 20 -71 22 -68 19 19 -205 759
-259 856 -10 19 -16 26 -13 15z"/>
<path d="M4081 6564 c0 -11 3 -14 6 -6 3 7 2 16 -1 19 -3 4 -6 -2 -5 -13z"/>
<path d="M4766 6335 c9 -102 64 -479 71 -484 3 -4 3 12 -1 34 -3 22 -20 141
-36 265 -31 222 -45 302 -34 185z"/>
<path d="M3110 5488 c14 -6 61 -28 105 -48 44 -20 111 -58 149 -84 39 -26 61
-37 51 -26 -43 48 -219 142 -305 164 l-25 6 25 -12z"/>
<path d="M3064 4699 c-4 -8 -3 -10 4 -5 6 4 26 -1 44 -10 30 -16 78 -28 78
-19 0 2 -19 10 -42 18 -24 8 -50 18 -59 22 -10 3 -20 1 -25 -6z"/>
<path d="M3510 4440 c-8 -5 -11 -12 -7 -16 4 -4 13 -2 19 4 15 15 7 24 -12 12z"/>
<path d="M4510 4419 c0 -5 7 -9 16 -9 8 0 13 -3 11 -7 -3 -5 20 -9 50 -10 31
-2 62 -8 69 -14 11 -9 14 -9 14 0 0 13 0 13 -92 33 -38 9 -68 11 -68 7z"/>
<path d="M3476 4080 c-18 -46 -21 -156 -6 -212 23 -82 133 -194 210 -213 14
-3 4 6 -22 20 -83 44 -158 130 -158 180 0 37 81 114 162 154 l67 33 110 -7
111 -7 21 -34 c21 -35 28 -36 66 -1 21 19 22 19 47 1 34 -25 66 -91 66 -138 0
-112 -108 -197 -275 -216 l-60 -7 56 -2 c161 -4 309 116 297 241 -5 52 -43
117 -83 144 -23 15 -26 14 -58 -10 l-34 -26 -13 30 c-14 34 -14 34 -195 49
-66 6 -145 18 -175 27 -51 15 -55 15 -67 -2 -12 -16 -15 -17 -23 -4 -5 8 -10
21 -10 28 0 25 -18 11 -34 -28z"/>
<path d="M5096 3975 c-3 -9 -6 -22 -5 -28 0 -7 5 -1 10 12 5 13 8 26 5 28 -2
2 -6 -3 -10 -12z"/>
<path d="M5377 3876 c-12 -38 -15 -61 -9 -73 8 -14 11 -13 17 8 4 13 16 36 27
52 11 15 15 27 10 27 -5 0 -14 -12 -21 -26 -16 -36 -27 -22 -11 15 6 17 10 35
8 42 -2 6 -12 -14 -21 -45z"/>
<path d="M3769 7992 c11 -21 41 -48 41 -38 0 4 -7 18 -16 31 -19 29 -40 34
-25 7z"/>
<path d="M2111 4444 c0 -11 3 -14 6 -6 3 7 2 16 -1 19 -3 4 -6 -2 -5 -13z"/>
<path d="M2116 4393 c2 -6 6 -29 10 -50 6 -31 8 -34 15 -18 4 11 8 27 8 35 1
13 0 13 -10 0 -8 -11 -9 -6 -5 20 4 22 3 30 -3 21 -5 -7 -11 -9 -13 -5 -3 5
-3 4 -2 -3z"/>
<path d="M3016 6763 c-6 -14 -5 -15 5 -6 7 7 10 15 7 18 -3 3 -9 -2 -12 -12z"/>
<path d="M2827 6145 c-10 -49 -17 -103 -16 -120 0 -16 9 20 20 80 10 61 17
115 15 120 -1 6 -10 -30 -19 -80z"/>
<path d="M2801 5974 c0 -11 3 -14 6 -6 3 7 2 16 -1 19 -3 4 -6 -2 -5 -13z"/>
<path d="M2475 7375 c-29 -28 -33 -55 -7 -55 22 1 45 19 60 46 21 40 -16 47
-53 9z"/>
<path d="M2400 7350 c0 -5 5 -10 10 -10 6 0 10 5 10 10 0 6 -4 10 -10 10 -5 0
-10 -4 -10 -10z"/>
<path d="M2572 7153 c-33 -13 -54 -100 -29 -121 33 -28 90 66 66 109 -10 20
-15 21 -37 12z"/>
<path d="M2455 7090 c-3 -5 -1 -10 4 -10 6 0 11 5 11 10 0 6 -2 10 -4 10 -3 0
-8 -4 -11 -10z"/>
<path d="M2480 7080 c0 -5 5 -10 11 -10 5 0 7 5 4 10 -3 6 -8 10 -11 10 -2 0
-4 -4 -4 -10z"/>
<path d="M2436 4724 c-11 -29 -6 -204 9 -307 15 -101 59 -278 76 -307 13 -24
11 4 -5 52 -42 123 -83 434 -70 529 6 48 2 64 -10 33z"/>
<path d="M2738 4221 c-5 -35 -7 -107 -7 -160 l2 -96 9 105 c4 58 7 130 6 160
l-3 55 -7 -64z"/>
<path d="M2986 3731 c-4 -5 3 -7 14 -4 23 6 26 13 6 13 -8 0 -17 -4 -20 -9z"/>
<path d="M6207 4930 c14 -76 8 -328 -10 -445 -14 -90 -47 -241 -83 -380 -5
-19 -4 -19 7 -2 35 57 102 397 115 587 6 98 -9 257 -27 275 -7 7 -7 -6 -2 -35z"/>
<path d="M6370 3894 c-33 -34 -123 -103 -185 -144 -62 -40 -30 -31 44 13 54
33 194 156 176 156 -5 0 -21 -12 -35 -25z"/>
<path d="M5470 3844 c-1 -30 108 -144 144 -150 6 -1 20 -5 31 -10 13 -5 9 2
-12 22 -18 16 -51 53 -73 83 -50 68 -53 53 -4 -20 l35 -54 -38 40 c-21 22 -48
54 -60 70 -12 17 -23 25 -23 19z"/>
<path d="M5720 4473 c0 -4 12 -21 26 -38 l25 -30 -15 32 c-16 31 -36 52 -36
36z"/>
<path d="M5798 4393 c7 -3 16 -2 19 1 4 3 -2 6 -13 5 -11 0 -14 -3 -6 -6z"/>
<path d="M5721 4356 c12 -20 23 -36 25 -36 7 0 -25 58 -36 65 -5 3 -1 -10 11
-29z"/>
<path d="M5755 4240 c-4 -12 -5 -24 -2 -27 3 -2 8 5 12 17 4 12 5 24 2 27 -3
2 -8 -5 -12 -17z"/>
<path d="M6014 2759 c-3 -6 -2 -15 3 -20 5 -5 9 -1 9 11 0 23 -2 24 -12 9z"/>
<path d="M3612 2507 c-26 -28 -44 -84 -36 -109 7 -24 38 -40 62 -30 10 4 33
19 50 34 26 21 32 34 32 65 0 22 -5 44 -12 51 -20 20 -72 14 -96 -11z m91 -53
c8 -9 -11 -44 -23 -44 -6 0 -10 8 -10 18 0 27 18 41 33 26z"/>
<path d="M3789 2499 c-30 -30 -22 -104 16 -136 28 -24 73 -30 105 -13 43 23
28 119 -24 155 -29 21 -73 18 -97 -6z m39 -77 c3 -17 -2 -22 -17 -22 -14 0
-21 6 -21 18 0 38 33 41 38 4z"/>
<path d="M3676 2334 c-9 -24 -7 -28 9 -14 17 14 20 30 6 30 -5 0 -12 -7 -15
-16z"/>
<path d="M3730 2321 c0 -12 5 -21 10 -21 6 0 10 6 10 14 0 8 -4 18 -10 21 -5
3 -10 -3 -10 -14z"/>
<path d="M3891 1984 c0 -11 3 -14 6 -6 3 7 2 16 -1 19 -3 4 -6 -2 -5 -13z"/>
<path d="M6710 6491 c0 -21 43 -61 66 -61 31 0 30 13 -3 45 -27 24 -63 34 -63
16z"/>
<path d="M6597 6443 c-14 -14 -6 -64 13 -83 48 -48 95 10 54 68 -14 21 -53 30
-67 15z"/>
<path d="M6750 6400 c0 -5 5 -10 10 -10 6 0 10 5 10 10 0 6 -4 10 -10 10 -5 0
-10 -4 -10 -10z"/>
<path d="M6720 6379 c0 -5 5 -7 10 -4 6 3 10 8 10 11 0 2 -4 4 -10 4 -5 0 -10
-5 -10 -11z"/>
<path d="M6109 6211 c-48 -48 -35 -121 22 -121 64 0 106 92 61 133 -27 24 -50
21 -83 -12z"/>
<path d="M6270 6210 c-8 -14 -8 -32 0 -58 13 -51 41 -76 75 -68 21 5 25 12 25
44 0 76 -72 135 -100 82z"/>
<path d="M6215 6061 c-3 -5 -1 -12 5 -16 5 -3 10 1 10 9 0 18 -6 21 -15 7z"/>
<path d="M6255 6061 c-3 -5 -1 -12 5 -16 5 -3 10 1 10 9 0 18 -6 21 -15 7z"/>
<path d="M1093 4073 c32 -2 81 -2 110 0 29 2 3 3 -58 3 -60 0 -84 -1 -52 -3z"/>
<path d="M870 4054 c-93 -12 -204 -12 -280 2 -25 4 -25 4 -2 -6 60 -26 322
-20 396 10 27 11 15 10 -114 -6z"/>
<path d="M945 4000 c-44 -22 -91 -49 -105 -60 -14 -11 25 5 85 36 120 62 123
64 109 64 -5 0 -45 -18 -89 -40z"/>
<path d="M6490 3081 c0 -5 7 -12 16 -15 25 -9 54 -7 54 5 0 5 -4 8 -9 5 -5 -4
-21 -2 -35 4 -14 5 -26 6 -26 1z"/>
<path d="M6321 2646 c8 -9 146 -56 161 -55 7 0 -17 11 -54 24 -92 32 -114 38
-107 31z"/>
<path d="M6390 2566 c0 -2 39 -26 88 -52 48 -26 125 -72 172 -102 46 -30 79
-47 71 -39 -28 34 -331 210 -331 193z"/>
<path d="M6778 2543 c7 -3 16 -2 19 1 4 3 -2 6 -13 5 -11 0 -14 -3 -6 -6z"/>
<path d="M6818 2533 c6 -2 18 -2 25 0 6 3 1 5 -13 5 -14 0 -19 -2 -12 -5z"/>
<path d="M7057 2089 c-27 -20 -71 -30 -227 -47 -59 -7 -66 -9 -30 -10 121 -4
272 31 295 68 10 16 -8 11 -38 -11z"/>
<path d="M0 1030 c0 -13 11 -13 30 0 12 8 11 10 -7 10 -13 0 -23 -4 -23 -10z"/>
<path d="M3542 658 c-19 -19 -14 -37 9 -31 11 3 18 11 15 19 -3 9 1 11 12 8
14 -5 15 -4 2 5 -19 14 -23 14 -38 -1z"/>
<path d="M1891 584 c0 -11 3 -14 6 -6 3 7 2 16 -1 19 -3 4 -6 -2 -5 -13z"/>
</g>
</svg>
